solid board_enclosure
facet normal -0.3826834323650952 -0.9238795325112845 -0.0
  outer loop
    vertex 243.62153587531938 -7.385877256801188 19.000000000000565
    vertex 243.25976444297316 -7.2360266230442365 11.000000000000565
    vertex 243.62153587531938 -7.385877256801188 11.000000000000565
  endloop
endfacet
facet normal -0.3826834323650952 -0.9238795325112845 -0.0
  outer loop
    vertex 243.25976444297316 -7.2360266230442365 11.000000000000565
    vertex 243.62153587531938 -7.385877256801188 19.000000000000565
    vertex 243.25976444297316 -7.2360266230442365 19.000000000000565
  endloop
endfacet
facet normal -0.6087614290087131 -0.7933533402912412 -0.0
  outer loop
    vertex 243.9321960470992 -7.6242551906980145 19.000000000000565
    vertex 243.62153587531938 -7.385877256801188 11.000000000000565
    vertex 243.9321960470992 -7.6242551906980145 11.000000000000565
  endloop
endfacet
facet normal -0.6087614290087131 -0.7933533402912412 -0.0
  outer loop
    vertex 243.62153587531938 -7.385877256801188 11.000000000000565
    vertex 243.9321960470992 -7.6242551906980145 19.000000000000565
    vertex 243.62153587531938 -7.385877256801188 19.000000000000565
  endloop
endfacet
facet normal 0.3826834323651156 -0.9238795325112762 0.0
  outer loop
    vertex 242.48330730766563 -7.2360266230442365 19.000000000000565
    vertex 242.1215358753194 -7.385877256801188 11.000000000000565
    vertex 242.48330730766563 -7.2360266230442365 11.000000000000565
  endloop
endfacet
facet normal 0.3826834323651156 -0.9238795325112762 0.0
  outer loop
    vertex 242.1215358753194 -7.385877256801188 11.000000000000565
    vertex 242.48330730766563 -7.2360266230442365 19.000000000000565
    vertex 242.1215358753194 -7.385877256801188 19.000000000000565
  endloop
endfacet
facet normal -0.16733944092457462 -0.9858993414700361 -2.493939080979987e-18
  outer loop
    vertex 230.3715358753194 -27.515182577511073 11.000000000000568
    vertex 229.8715358753194 -27.43031618502771 10.000000000000568
    vertex 230.3715358753194 -27.515182577511073 10.000000000000568
  endloop
endfacet
facet normal -0.16733944092457462 -0.9858993414700361 -2.493939080979987e-18
  outer loop
    vertex 229.8715358753194 -27.43031618502771 10.000000000000568
    vertex 230.3715358753194 -27.515182577511073 11.000000000000568
    vertex 229.8715358753194 -27.43031618502771 11.000000000000568
  endloop
endfacet
facet normal 0.0 0.0 1.0
  outer loop
    vertex 241.42264713588577 -9.073143930131618 11.000000000000565
    vertex 241.42264713588577 -8.29668679482406 11.000000000000565
    vertex 241.3715358753194 -8.684915362477838 11.000000000000565
  endloop
endfacet
facet normal 0.0 0.0 1.0
  outer loop
    vertex 241.42264713588577 -8.29668679482406 11.000000000000565
    vertex 241.42264713588577 -9.073143930131618 11.000000000000565
    vertex 241.57249776964275 -9.434915362477826 11.000000000000565
  endloop
endfacet
facet normal 0.0 0.0 1.0
  outer loop
    vertex 241.42264713588577 -8.29668679482406 11.000000000000565
    vertex 241.57249776964275 -9.434915362477826 11.000000000000565
    vertex 241.57249776964275 -7.934915362477828 11.000000000000565
  endloop
endfacet
facet normal 0.0 0.0 1.0
  outer loop
    vertex 241.57249776964275 -7.934915362477828 11.000000000000565
    vertex 241.57249776964275 -9.434915362477826 11.000000000000565
    vertex 241.81087570353958 -9.745575534257663 11.000000000000565
  endloop
endfacet
facet normal 0.0 0.0 1.0
  outer loop
    vertex 241.57249776964275 -7.934915362477828 11.000000000000565
    vertex 241.81087570353958 -9.745575534257663 11.000000000000565
    vertex 241.81087570353958 -7.6242551906980145 11.000000000000565
  endloop
endfacet
facet normal 0.0 0.0 1.0
  outer loop
    vertex 241.81087570353958 -7.6242551906980145 11.000000000000565
    vertex 241.81087570353958 -9.745575534257663 11.000000000000565
    vertex 242.12153587531935 -9.983953468154489 11.000000000000565
  endloop
endfacet
facet normal 0.0 0.0 1.0
  outer loop
    vertex 241.81087570353958 -7.6242551906980145 11.000000000000565
    vertex 242.12153587531935 -9.983953468154489 11.000000000000565
    vertex 242.1215358753194 -7.385877256801188 11.000000000000565
  endloop
endfacet
facet normal 0.0 0.0 1.0
  outer loop
    vertex 242.1215358753194 -7.385877256801188 11.000000000000565
    vertex 242.12153587531935 -9.983953468154489 11.000000000000565
    vertex 242.48330730766563 -10.13380410191144 11.000000000000565
  endloop
endfacet
facet normal 0.0 0.0 1.0
  outer loop
    vertex 242.1215358753194 -7.385877256801188 11.000000000000565
    vertex 242.48330730766563 -10.13380410191144 11.000000000000565
    vertex 242.48330730766563 -7.2360266230442365 11.000000000000565
  endloop
endfacet
facet normal 0.0 0.0 1.0
  outer loop
    vertex 242.48330730766563 -7.2360266230442365 11.000000000000565
    vertex 242.48330730766563 -10.13380410191144 11.000000000000565
    vertex 242.87153587531938 -10.184915362477836 11.000000000000565
  endloop
endfacet
facet normal 0.0 0.0 1.0
  outer loop
    vertex 242.48330730766563 -7.2360266230442365 11.000000000000565
    vertex 242.87153587531938 -10.184915362477836 11.000000000000565
    vertex 242.87153587531938 -7.184915362477842 11.000000000000565
  endloop
endfacet
facet normal 0.0 0.0 1.0
  outer loop
    vertex 242.87153587531938 -7.184915362477842 11.000000000000565
    vertex 242.87153587531938 -10.184915362477836 11.000000000000565
    vertex 243.25976444297316 -10.13380410191144 11.000000000000565
  endloop
endfacet
facet normal 0.0 0.0 1.0
  outer loop
    vertex 242.87153587531938 -7.184915362477842 11.000000000000565
    vertex 243.25976444297316 -10.13380410191144 11.000000000000565
    vertex 243.25976444297316 -7.2360266230442365 11.000000000000565
  endloop
endfacet
facet normal 0.0 0.0 1.0
  outer loop
    vertex 243.25976444297316 -7.2360266230442365 11.000000000000565
    vertex 243.25976444297316 -10.13380410191144 11.000000000000565
    vertex 243.62153587531938 -9.983953468154489 11.000000000000565
  endloop
endfacet
facet normal 0.0 0.0 1.0
  outer loop
    vertex 243.25976444297316 -7.2360266230442365 11.000000000000565
    vertex 243.62153587531938 -9.983953468154489 11.000000000000565
    vertex 243.62153587531938 -7.385877256801188 11.000000000000565
  endloop
endfacet
facet normal 0.0 0.0 1.0
  outer loop
    vertex 243.62153587531938 -7.385877256801188 11.000000000000565
    vertex 243.62153587531938 -9.983953468154489 11.000000000000565
    vertex 243.9321960470992 -9.745575534257663 11.000000000000565
  endloop
endfacet
facet normal 0.0 0.0 1.0
  outer loop
    vertex 243.62153587531938 -7.385877256801188 11.000000000000565
    vertex 243.9321960470992 -9.745575534257663 11.000000000000565
    vertex 243.9321960470992 -7.6242551906980145 11.000000000000565
  endloop
endfacet
facet normal 0.0 0.0 1.0
  outer loop
    vertex 243.9321960470992 -7.6242551906980145 11.000000000000565
    vertex 243.9321960470992 -9.745575534257663 11.000000000000565
    vertex 244.17057398099604 -9.434915362477849 11.000000000000565
  endloop
endfacet
facet normal 0.0 0.0 1.0
  outer loop
    vertex 243.9321960470992 -7.6242551906980145 11.000000000000565
    vertex 244.17057398099604 -9.434915362477849 11.000000000000565
    vertex 244.17057398099604 -7.9349153624778515 11.000000000000565
  endloop
endfacet
facet normal 0.0 0.0 1.0
  outer loop
    vertex 244.17057398099604 -7.9349153624778515 11.000000000000565
    vertex 244.17057398099604 -9.434915362477849 11.000000000000565
    vertex 244.32042461475297 -9.073143930131618 11.000000000000565
  endloop
endfacet
facet normal 0.0 0.0 1.0
  outer loop
    vertex 244.17057398099604 -7.9349153624778515 11.000000000000565
    vertex 244.32042461475297 -9.073143930131618 11.000000000000565
    vertex 244.32042461475297 -8.29668679482406 11.000000000000565
  endloop
endfacet
facet normal 0.0 0.0 1.0
  outer loop
    vertex 244.32042461475297 -8.29668679482406 11.000000000000565
    vertex 244.32042461475297 -9.073143930131618 11.000000000000565
    vertex 244.37153587531938 -8.684915362477838 11.000000000000565
  endloop
endfacet
facet normal 0.13052619222004555 -0.9914448613738113 0.0
  outer loop
    vertex 242.87153587531938 -7.184915362477842 19.000000000000565
    vertex 242.48330730766563 -7.2360266230442365 11.000000000000565
    vertex 242.87153587531938 -7.184915362477842 11.000000000000565
  endloop
endfacet
facet normal 0.13052619222004555 -0.9914448613738113 0.0
  outer loop
    vertex 242.48330730766563 -7.2360266230442365 11.000000000000565
    vertex 242.87153587531938 -7.184915362477842 19.000000000000565
    vertex 242.48330730766563 -7.2360266230442365 19.000000000000565
  endloop
endfacet
facet normal -0.7933533402912625 -0.6087614290086852 -0.0
  outer loop
    vertex 243.9321960470992 -7.6242551906980145 19.000000000000565
    vertex 244.17057398099604 -7.9349153624778515 11.000000000000565
    vertex 244.17057398099604 -7.9349153624778515 19.000000000000565
  endloop
endfacet
facet normal -0.7933533402912625 -0.6087614290086852 -0.0
  outer loop
    vertex 244.17057398099604 -7.9349153624778515 11.000000000000565
    vertex 243.9321960470992 -7.6242551906980145 19.000000000000565
    vertex 243.9321960470992 -7.6242551906980145 11.000000000000565
  endloop
endfacet
facet normal -0.9238795325112762 -0.3826834323651156 -0.0
  outer loop
    vertex 244.17057398099604 -7.9349153624778515 19.000000000000565
    vertex 244.32042461475297 -8.29668679482406 11.000000000000565
    vertex 244.32042461475297 -8.29668679482406 19.000000000000565
  endloop
endfacet
facet normal -0.9238795325112762 -0.3826834323651156 -0.0
  outer loop
    vertex 244.32042461475297 -8.29668679482406 11.000000000000565
    vertex 244.17057398099604 -7.9349153624778515 19.000000000000565
    vertex 244.17057398099604 -7.9349153624778515 11.000000000000565
  endloop
endfacet
facet normal -0.9914448613738113 -0.13052619222004555 -0.0
  outer loop
    vertex 244.32042461475297 -8.29668679482406 19.000000000000565
    vertex 244.37153587531938 -8.684915362477838 11.000000000000565
    vertex 244.37153587531938 -8.684915362477838 19.000000000000565
  endloop
endfacet
facet normal -0.9914448613738113 -0.13052619222004555 -0.0
  outer loop
    vertex 244.37153587531938 -8.684915362477838 11.000000000000565
    vertex 244.32042461475297 -8.29668679482406 19.000000000000565
    vertex 244.32042461475297 -8.29668679482406 11.000000000000565
  endloop
endfacet
facet normal 0.0 1.0 0.0
  outer loop
    vertex 229.8715358753194 9.315084637522174 11.000000000000568
    vertex 230.3715358753194 9.315084637522174 10.000000000000568
    vertex 229.8715358753194 9.315084637522174 10.000000000000568
  endloop
endfacet
facet normal 0.0 1.0 0.0
  outer loop
    vertex 230.3715358753194 9.315084637522174 10.000000000000568
    vertex 229.8715358753194 9.315084637522174 11.000000000000568
    vertex 230.3715358753194 9.315084637522174 11.000000000000568
  endloop
endfacet
facet normal -0.9914448613738113 0.13052619222004555 0.0
  outer loop
    vertex 244.37153587531938 -8.684915362477838 19.000000000000565
    vertex 244.32042461475297 -9.073143930131618 11.000000000000565
    vertex 244.32042461475297 -9.073143930131618 19.000000000000565
  endloop
endfacet
facet normal -0.9914448613738113 0.13052619222004555 0.0
  outer loop
    vertex 244.32042461475297 -9.073143930131618 11.000000000000565
    vertex 244.37153587531938 -8.684915362477838 19.000000000000565
    vertex 244.37153587531938 -8.684915362477838 11.000000000000565
  endloop
endfacet
facet normal -0.13052619222004555 -0.9914448613738113 -0.0
  outer loop
    vertex 243.25976444297316 -7.2360266230442365 19.000000000000565
    vertex 242.87153587531938 -7.184915362477842 11.000000000000565
    vertex 243.25976444297316 -7.2360266230442365 11.000000000000565
  endloop
endfacet
facet normal -0.13052619222004555 -0.9914448613738113 -0.0
  outer loop
    vertex 242.87153587531938 -7.184915362477842 11.000000000000565
    vertex 243.25976444297316 -7.2360266230442365 19.000000000000565
    vertex 242.87153587531938 -7.184915362477842 19.000000000000565
  endloop
endfacet
facet normal 0.0 0.0 -1.0
  outer loop
    vertex 239.00783257016312 -7.649639182067747 10.000000000000565
    vertex 239.00783257016312 -9.720191542887907 10.000000000000565
    vertex 238.87153587531938 -8.684915362477838 10.000000000000565
  endloop
endfacet
facet normal 0.0 0.0 -1.0
  outer loop
    vertex 239.00783257016312 -9.720191542887907 10.000000000000565
    vertex 239.00783257016312 -7.649639182067747 10.000000000000565
    vertex 239.40743426018165 -6.684915362477843 10.000000000000565
  endloop
endfacet
facet normal 0.0 0.0 -1.0
  outer loop
    vertex 239.00783257016312 -9.720191542887907 10.000000000000565
    vertex 239.40743426018165 -6.684915362477843 10.000000000000565
    vertex 239.40743426018165 -10.684915362477835 10.000000000000565
  endloop
endfacet
facet normal 0.0 0.0 -1.0
  outer loop
    vertex 239.40743426018165 -10.684915362477835 10.000000000000565
    vertex 239.40743426018165 -6.684915362477843 10.000000000000565
    vertex 240.04310875057323 -5.856488237731664 10.000000000000565
  endloop
endfacet
facet normal 0.0 0.0 -1.0
  outer loop
    vertex 239.40743426018165 -10.684915362477835 10.000000000000565
    vertex 240.04310875057323 -5.856488237731664 10.000000000000565
    vertex 240.04310875057317 -11.513342487224014 10.000000000000565
  endloop
endfacet
facet normal 0.0 0.0 -1.0
  outer loop
    vertex 240.04310875057317 -11.513342487224014 10.000000000000565
    vertex 240.04310875057323 -5.856488237731664 10.000000000000565
    vertex 240.87153587531938 -12.149016977615595 10.000000000000565
  endloop
endfacet
facet normal 0.0 0.0 -1.0
  outer loop
    vertex 240.87153587531938 -12.149016977615595 10.000000000000565
    vertex 240.04310875057323 -5.856488237731664 10.000000000000565
    vertex 240.87153587531938 -5.220813747340082 10.000000000000565
  endloop
endfacet
facet normal 0.0 0.0 -1.0
  outer loop
    vertex 240.87153587531938 -12.149016977615595 10.000000000000565
    vertex 240.87153587531938 -5.220813747340082 10.000000000000565
    vertex 241.83625969490933 -4.821212057321572 10.000000000000565
  endloop
endfacet
facet normal 0.0 0.0 -1.0
  outer loop
    vertex 240.87153587531938 -12.149016977615595 10.000000000000565
    vertex 241.83625969490933 -4.821212057321572 10.000000000000565
    vertex 241.83625969490933 -12.548618667634104 10.000000000000565
  endloop
endfacet
facet normal 0.0 0.0 -1.0
  outer loop
    vertex 241.83625969490933 -12.548618667634104 10.000000000000565
    vertex 241.83625969490933 -4.821212057321572 10.000000000000565
    vertex 242.87153587531938 -4.684915362477846 10.000000000000565
  endloop
endfacet
facet normal 0.0 0.0 -1.0
  outer loop
    vertex 241.83625969490933 -12.548618667634104 10.000000000000565
    vertex 242.87153587531938 -4.684915362477846 10.000000000000565
    vertex 242.87153587531938 -12.684915362477831 10.000000000000565
  endloop
endfacet
facet normal 0.0 0.0 -1.0
  outer loop
    vertex 242.87153587531938 -12.684915362477831 10.000000000000565
    vertex 242.87153587531938 -4.684915362477846 10.000000000000565
    vertex 243.90681205572952 -4.821212057321572 10.000000000000565
  endloop
endfacet
facet normal 0.0 0.0 -1.0
  outer loop
    vertex 242.87153587531938 -12.684915362477831 10.000000000000565
    vertex 243.90681205572952 -4.821212057321572 10.000000000000565
    vertex 243.90681205572946 -12.548618667634104 10.000000000000565
  endloop
endfacet
facet normal 0.0 0.0 -1.0
  outer loop
    vertex 243.90681205572946 -12.548618667634104 10.000000000000565
    vertex 243.90681205572952 -4.821212057321572 10.000000000000565
    vertex 244.87153587531938 -12.149016977615595 10.000000000000565
  endloop
endfacet
facet normal 0.0 0.0 -1.0
  outer loop
    vertex 244.87153587531938 -12.149016977615595 10.000000000000565
    vertex 243.90681205572952 -4.821212057321572 10.000000000000565
    vertex 244.87153587531938 -5.220813747340082 10.000000000000565
  endloop
endfacet
facet normal 0.0 0.0 -1.0
  outer loop
    vertex 244.87153587531938 -12.149016977615595 10.000000000000565
    vertex 244.87153587531938 -5.220813747340082 10.000000000000565
    vertex 245.69996300006557 -5.856488237731664 10.000000000000565
  endloop
endfacet
facet normal 0.0 0.0 -1.0
  outer loop
    vertex 244.87153587531938 -12.149016977615595 10.000000000000565
    vertex 245.69996300006557 -5.856488237731664 10.000000000000565
    vertex 245.69996300006557 -11.513342487224014 10.000000000000565
  endloop
endfacet
facet normal 0.0 0.0 -1.0
  outer loop
    vertex 245.69996300006557 -11.513342487224014 10.000000000000565
    vertex 245.69996300006557 -5.856488237731664 10.000000000000565
    vertex 246.33563749045715 -6.684915362477843 10.000000000000565
  endloop
endfacet
facet normal 0.0 0.0 -1.0
  outer loop
    vertex 245.69996300006557 -11.513342487224014 10.000000000000565
    vertex 246.33563749045715 -6.684915362477843 10.000000000000565
    vertex 246.33563749045715 -10.684915362477835 10.000000000000565
  endloop
endfacet
facet normal 0.0 0.0 -1.0
  outer loop
    vertex 246.33563749045715 -10.684915362477835 10.000000000000565
    vertex 246.33563749045715 -6.684915362477843 10.000000000000565
    vertex 246.73523918047567 -7.649639182067747 10.000000000000565
  endloop
endfacet
facet normal 0.0 0.0 -1.0
  outer loop
    vertex 246.33563749045715 -10.684915362477835 10.000000000000565
    vertex 246.73523918047567 -7.649639182067747 10.000000000000565
    vertex 246.73523918047567 -9.72019154288793 10.000000000000565
  endloop
endfacet
facet normal 0.0 0.0 -1.0
  outer loop
    vertex 246.73523918047567 -9.72019154288793 10.000000000000565
    vertex 246.73523918047567 -7.649639182067747 10.000000000000565
    vertex 246.87153587531935 -8.684915362477838 10.000000000000565
  endloop
endfacet
facet normal -0.9238795325112845 0.3826834323650952 0.0
  outer loop
    vertex 244.32042461475297 -9.073143930131618 19.000000000000565
    vertex 244.17057398099604 -9.434915362477849 11.000000000000565
    vertex 244.17057398099604 -9.434915362477849 19.000000000000565
  endloop
endfacet
facet normal -0.9238795325112845 0.3826834323650952 0.0
  outer loop
    vertex 244.17057398099604 -9.434915362477849 11.000000000000565
    vertex 244.32042461475297 -9.073143930131618 19.000000000000565
    vertex 244.32042461475297 -9.073143930131618 11.000000000000565
  endloop
endfacet
facet normal -0.7933533402912412 0.6087614290087131 0.0
  outer loop
    vertex 244.17057398099604 -9.434915362477849 19.000000000000565
    vertex 243.9321960470992 -9.745575534257663 11.000000000000565
    vertex 243.9321960470992 -9.745575534257663 19.000000000000565
  endloop
endfacet
facet normal -0.7933533402912412 0.6087614290087131 0.0
  outer loop
    vertex 243.9321960470992 -9.745575534257663 11.000000000000565
    vertex 244.17057398099604 -9.434915362477849 19.000000000000565
    vertex 244.17057398099604 -9.434915362477849 11.000000000000565
  endloop
endfacet
facet normal -0.6087614290086852 0.7933533402912625 0.0
  outer loop
    vertex 243.62153587531938 -9.983953468154489 19.000000000000565
    vertex 243.9321960470992 -9.745575534257663 11.000000000000565
    vertex 243.62153587531938 -9.983953468154489 11.000000000000565
  endloop
endfacet
facet normal -0.6087614290086852 0.7933533402912625 0.0
  outer loop
    vertex 243.9321960470992 -9.745575534257663 11.000000000000565
    vertex 243.62153587531938 -9.983953468154489 19.000000000000565
    vertex 243.9321960470992 -9.745575534257663 19.000000000000565
  endloop
endfacet
facet normal 0.0 0.0 -1.0
  outer loop
    vertex 255.87153587531938 9.315084637522174 10.000000000000568
    vertex 255.3715358753194 -27.515182577511073 10.000000000000568
    vertex 255.3715358753194 9.315084637522174 10.000000000000568
  endloop
endfacet
facet normal 0.0 0.0 -1.0
  outer loop
    vertex 255.3715358753194 -27.515182577511073 10.000000000000568
    vertex 255.87153587531938 9.315084637522174 10.000000000000568
    vertex 255.87153587531938 -27.430316185027685 10.000000000000568
  endloop
endfacet
facet normal 0.0 0.0 -1.0
  outer loop
    vertex 255.87153587531938 -27.430316185027685 10.000000000000568
    vertex 255.87153587531938 9.315084637522174 10.000000000000568
    vertex 256.8715358753194 9.315084637522174 10.000000000000568
  endloop
endfacet
facet normal 0.0 0.0 -1.0
  outer loop
    vertex 255.87153587531938 -27.430316185027685 10.000000000000568
    vertex 256.8715358753194 9.315084637522174 10.000000000000568
    vertex 256.8715358753194 -27.260583400060934 10.000000000000568
  endloop
endfacet
facet normal -0.3826834323651156 0.9238795325112762 0.0
  outer loop
    vertex 243.25976444297316 -10.13380410191144 19.000000000000565
    vertex 243.62153587531938 -9.983953468154489 11.000000000000565
    vertex 243.25976444297316 -10.13380410191144 11.000000000000565
  endloop
endfacet
facet normal -0.3826834323651156 0.9238795325112762 0.0
  outer loop
    vertex 243.62153587531938 -9.983953468154489 11.000000000000565
    vertex 243.25976444297316 -10.13380410191144 19.000000000000565
    vertex 243.62153587531938 -9.983953468154489 19.000000000000565
  endloop
endfacet
facet normal 0.6087614290086852 -0.7933533402912625 0.0
  outer loop
    vertex 242.1215358753194 -7.385877256801188 19.000000000000565
    vertex 241.81087570353958 -7.6242551906980145 11.000000000000565
    vertex 242.1215358753194 -7.385877256801188 11.000000000000565
  endloop
endfacet
facet normal 0.6087614290086852 -0.7933533402912625 0.0
  outer loop
    vertex 241.81087570353958 -7.6242551906980145 11.000000000000565
    vertex 242.1215358753194 -7.385877256801188 19.000000000000565
    vertex 241.81087570353958 -7.6242551906980145 19.000000000000565
  endloop
endfacet
facet normal 0.9238795325112762 0.3826834323651156 0.0
  outer loop
    vertex 241.42264713588577 -9.073143930131618 11.000000000000565
    vertex 241.57249776964275 -9.434915362477826 19.000000000000565
    vertex 241.57249776964275 -9.434915362477826 11.000000000000565
  endloop
endfacet
facet normal 0.9238795325112762 0.3826834323651156 0.0
  outer loop
    vertex 241.57249776964275 -9.434915362477826 19.000000000000565
    vertex 241.42264713588577 -9.073143930131618 11.000000000000565
    vertex 241.42264713588577 -9.073143930131618 19.000000000000565
  endloop
endfacet
facet normal 0.0 -1.0 1.3751589110909809e-17
  outer loop
    vertex 254.37153587531938 -27.684915362477827 11.000000000000568
    vertex 254.29988524714554 -27.684915362477827 10.000000000000568
    vertex 254.37153587531938 -27.684915362477827 10.000000000000568
  endloop
endfacet
facet normal 0.0 -1.0 1.3751589110909809e-17
  outer loop
    vertex 254.29988524714554 -27.684915362477827 10.000000000000568
    vertex 254.37153587531938 -27.684915362477827 11.000000000000568
    vertex 254.29988524714554 -27.684915362477827 11.000000000000568
  endloop
endfacet
facet normal 0.7933533402912412 -0.6087614290087131 0.0
  outer loop
    vertex 241.81087570353958 -7.6242551906980145 11.000000000000565
    vertex 241.57249776964275 -7.934915362477828 19.000000000000565
    vertex 241.57249776964275 -7.934915362477828 11.000000000000565
  endloop
endfacet
facet normal 0.7933533402912412 -0.6087614290087131 0.0
  outer loop
    vertex 241.57249776964275 -7.934915362477828 19.000000000000565
    vertex 241.81087570353958 -7.6242551906980145 11.000000000000565
    vertex 241.81087570353958 -7.6242551906980145 19.000000000000565
  endloop
endfacet
facet normal 0.0 -1.0 1.375158911090981e-17
  outer loop
    vertex 231.44318650349322 -27.684915362477827 11.000000000000568
    vertex 231.37153587531938 -27.684915362477827 10.000000000000568
    vertex 231.44318650349322 -27.684915362477827 10.000000000000568
  endloop
endfacet
facet normal 0.0 -1.0 1.375158911090981e-17
  outer loop
    vertex 231.37153587531938 -27.684915362477827 10.000000000000568
    vertex 231.44318650349322 -27.684915362477827 11.000000000000568
    vertex 231.37153587531938 -27.684915362477827 11.000000000000568
  endloop
endfacet
facet normal 0.9914448613738113 0.13052619222004555 0.0
  outer loop
    vertex 241.3715358753194 -8.684915362477838 11.000000000000565
    vertex 241.42264713588577 -9.073143930131618 19.000000000000565
    vertex 241.42264713588577 -9.073143930131618 11.000000000000565
  endloop
endfacet
facet normal 0.9914448613738113 0.13052619222004555 0.0
  outer loop
    vertex 241.42264713588577 -9.073143930131618 19.000000000000565
    vertex 241.3715358753194 -8.684915362477838 11.000000000000565
    vertex 241.3715358753194 -8.684915362477838 19.000000000000565
  endloop
endfacet
facet normal 0.0 1.0 0.0
  outer loop
    vertex 230.3715358753194 9.315084637522174 11.000000000000568
    vertex 255.3715358753194 9.315084637522174 10.000000000000568
    vertex 230.3715358753194 9.315084637522174 10.000000000000568
  endloop
endfacet
facet normal 0.0 1.0 0.0
  outer loop
    vertex 255.3715358753194 9.315084637522174 10.000000000000568
    vertex 230.3715358753194 9.315084637522174 11.000000000000568
    vertex 255.3715358753194 9.315084637522174 11.000000000000568
  endloop
endfacet
facet normal -0.05233595624294377 -0.998629534754574 1.3732743035963933e-17
  outer loop
    vertex 242.87153587531938 -28.7849153624778 11.000000000000568
    vertex 236.17126137986273 -28.43376885558412 10.00000000000057
    vertex 242.87153587531938 -28.7849153624778 10.00000000000057
  endloop
endfacet
facet normal -0.05233595624294377 -0.998629534754574 1.3732743035963933e-17
  outer loop
    vertex 236.17126137986273 -28.43376885558412 10.00000000000057
    vertex 242.87153587531938 -28.7849153624778 11.000000000000568
    vertex 236.17126137986273 -28.43376885558412 11.000000000000568
  endloop
endfacet
facet normal 0.9914448613738113 -0.13052619222004555 0.0
  outer loop
    vertex 241.42264713588577 -8.29668679482406 11.000000000000565
    vertex 241.3715358753194 -8.684915362477838 19.000000000000565
    vertex 241.3715358753194 -8.684915362477838 11.000000000000565
  endloop
endfacet
facet normal 0.9914448613738113 -0.13052619222004555 0.0
  outer loop
    vertex 241.3715358753194 -8.684915362477838 19.000000000000565
    vertex 241.42264713588577 -8.29668679482406 11.000000000000565
    vertex 241.42264713588577 -8.29668679482406 19.000000000000565
  endloop
endfacet
facet normal 0.3826834323650952 0.9238795325112845 0.0
  outer loop
    vertex 242.12153587531935 -9.983953468154489 19.000000000000565
    vertex 242.48330730766563 -10.13380410191144 11.000000000000565
    vertex 242.12153587531935 -9.983953468154489 11.000000000000565
  endloop
endfacet
facet normal 0.3826834323650952 0.9238795325112845 0.0
  outer loop
    vertex 242.48330730766563 -10.13380410191144 11.000000000000565
    vertex 242.12153587531935 -9.983953468154489 19.000000000000565
    vertex 242.48330730766563 -10.13380410191144 19.000000000000565
  endloop
endfacet
facet normal 0.16733944092459624 -0.9858993414700324 -4.2006066498294135e-29
  outer loop
    vertex 255.3715358753194 -27.515182577511073 11.000000000000568
    vertex 254.37153587531938 -27.684915362477827 10.000000000000568
    vertex 255.3715358753194 -27.515182577511073 10.000000000000568
  endloop
endfacet
facet normal 0.16733944092459624 -0.9858993414700324 -4.2006066498294135e-29
  outer loop
    vertex 254.37153587531938 -27.684915362477827 10.000000000000568
    vertex 255.3715358753194 -27.515182577511073 11.000000000000568
    vertex 254.37153587531938 -27.684915362477827 11.000000000000568
  endloop
endfacet
facet normal 0.15643446504022993 -0.987688340595138 1.358228422950066e-17
  outer loop
    vertex 254.29988524714554 -27.684915362477827 11.000000000000568
    vertex 249.57181037077595 -28.43376885558412 10.00000000000057
    vertex 254.29988524714554 -27.684915362477827 10.000000000000568
  endloop
endfacet
facet normal 0.15643446504022993 -0.987688340595138 1.358228422950066e-17
  outer loop
    vertex 249.57181037077595 -28.43376885558412 10.00000000000057
    vertex 254.29988524714554 -27.684915362477827 11.000000000000568
    vertex 249.57181037077595 -28.43376885558412 11.000000000000568
  endloop
endfacet
facet normal 0.7933533402912625 0.6087614290086852 0.0
  outer loop
    vertex 241.57249776964275 -9.434915362477826 11.000000000000565
    vertex 241.81087570353958 -9.745575534257663 19.000000000000565
    vertex 241.81087570353958 -9.745575534257663 11.000000000000565
  endloop
endfacet
facet normal 0.7933533402912625 0.6087614290086852 0.0
  outer loop
    vertex 241.81087570353958 -9.745575534257663 19.000000000000565
    vertex 241.57249776964275 -9.434915362477826 11.000000000000565
    vertex 241.57249776964275 -9.434915362477826 19.000000000000565
  endloop
endfacet
facet normal 0.6087614290087131 0.7933533402912412 0.0
  outer loop
    vertex 241.81087570353958 -9.745575534257663 19.000000000000565
    vertex 242.12153587531935 -9.983953468154489 11.000000000000565
    vertex 241.81087570353958 -9.745575534257663 11.000000000000565
  endloop
endfacet
facet normal 0.6087614290087131 0.7933533402912412 0.0
  outer loop
    vertex 242.12153587531935 -9.983953468154489 11.000000000000565
    vertex 241.81087570353958 -9.745575534257663 19.000000000000565
    vertex 242.12153587531935 -9.983953468154489 19.000000000000565
  endloop
endfacet
facet normal -0.16733944092459627 -0.9858993414700324 -3.1360318205401444e-29
  outer loop
    vertex 231.37153587531938 -27.684915362477827 11.000000000000568
    vertex 230.3715358753194 -27.515182577511073 10.000000000000568
    vertex 231.37153587531938 -27.684915362477827 10.000000000000568
  endloop
endfacet
facet normal -0.16733944092459627 -0.9858993414700324 -3.1360318205401444e-29
  outer loop
    vertex 230.3715358753194 -27.515182577511073 10.000000000000568
    vertex 231.37153587531938 -27.684915362477827 11.000000000000568
    vertex 230.3715358753194 -27.515182577511073 11.000000000000568
  endloop
endfacet
facet normal -0.13052619222004555 0.9914448613738113 0.0
  outer loop
    vertex 242.87153587531938 -10.184915362477836 19.000000000000565
    vertex 243.25976444297316 -10.13380410191144 11.000000000000565
    vertex 242.87153587531938 -10.184915362477836 11.000000000000565
  endloop
endfacet
facet normal -0.13052619222004555 0.9914448613738113 0.0
  outer loop
    vertex 243.25976444297316 -10.13380410191144 11.000000000000565
    vertex 242.87153587531938 -10.184915362477836 19.000000000000565
    vertex 243.25976444297316 -10.13380410191144 19.000000000000565
  endloop
endfacet
facet normal 0.05233595624294412 -0.9986295347545739 1.3732743035963924e-17
  outer loop
    vertex 249.57181037077595 -28.43376885558412 11.000000000000568
    vertex 242.87153587531938 -28.7849153624778 10.00000000000057
    vertex 249.57181037077595 -28.43376885558412 10.00000000000057
  endloop
endfacet
facet normal 0.05233595624294412 -0.9986295347545739 1.3732743035963924e-17
  outer loop
    vertex 242.87153587531938 -28.7849153624778 10.00000000000057
    vertex 249.57181037077595 -28.43376885558412 11.000000000000568
    vertex 242.87153587531938 -28.7849153624778 11.000000000000568
  endloop
endfacet
facet normal 1.169403115900097e-31 1.3751589110909807e-17 1.0
  outer loop
    vertex 236.17126137986273 -28.43376885558412 11.000000000000568
    vertex 239.00783257016312 -9.720191542887907 11.000000000000565
    vertex 238.87153587531938 -8.684915362477838 11.000000000000565
  endloop
endfacet
facet normal 1.169403115900097e-31 1.3751589110909807e-17 1.0
  outer loop
    vertex 239.00783257016312 -9.720191542887907 11.000000000000565
    vertex 236.17126137986273 -28.43376885558412 11.000000000000568
    vertex 242.87153587531938 -28.7849153624778 11.000000000000568
  endloop
endfacet
facet normal 1.169403115900097e-31 1.3751589110909807e-17 1.0
  outer loop
    vertex 239.00783257016312 -9.720191542887907 11.000000000000565
    vertex 242.87153587531938 -28.7849153624778 11.000000000000568
    vertex 239.40743426018165 -10.684915362477835 11.000000000000565
  endloop
endfacet
facet normal 1.169403115900097e-31 1.3751589110909807e-17 1.0
  outer loop
    vertex 239.40743426018165 -10.684915362477835 11.000000000000565
    vertex 242.87153587531938 -28.7849153624778 11.000000000000568
    vertex 240.04310875057317 -11.513342487224014 11.000000000000565
  endloop
endfacet
facet normal 1.169403115900097e-31 1.3751589110909807e-17 1.0
  outer loop
    vertex 240.04310875057317 -11.513342487224014 11.000000000000565
    vertex 242.87153587531938 -28.7849153624778 11.000000000000568
    vertex 240.87153587531938 -12.149016977615595 11.000000000000565
  endloop
endfacet
facet normal 1.169403115900097e-31 1.3751589110909807e-17 1.0
  outer loop
    vertex 240.87153587531938 -12.149016977615595 11.000000000000565
    vertex 242.87153587531938 -28.7849153624778 11.000000000000568
    vertex 241.83625969490933 -12.548618667634104 11.000000000000565
  endloop
endfacet
facet normal 1.169403115900097e-31 1.3751589110909807e-17 1.0
  outer loop
    vertex 241.83625969490933 -12.548618667634104 11.000000000000565
    vertex 242.87153587531938 -28.7849153624778 11.000000000000568
    vertex 242.87153587531938 -12.684915362477831 11.000000000000565
  endloop
endfacet
facet normal 1.169403115900097e-31 1.3751589110909807e-17 1.0
  outer loop
    vertex 242.87153587531938 -12.684915362477831 11.000000000000565
    vertex 242.87153587531938 -28.7849153624778 11.000000000000568
    vertex 249.57181037077595 -28.43376885558412 11.000000000000568
  endloop
endfacet
facet normal 1.169403115900097e-31 1.3751589110909807e-17 1.0
  outer loop
    vertex 242.87153587531938 -12.684915362477831 11.000000000000565
    vertex 249.57181037077595 -28.43376885558412 11.000000000000568
    vertex 243.90681205572946 -12.548618667634104 11.000000000000565
  endloop
endfacet
facet normal 1.169403115900097e-31 1.3751589110909807e-17 1.0
  outer loop
    vertex 243.90681205572946 -12.548618667634104 11.000000000000565
    vertex 249.57181037077595 -28.43376885558412 11.000000000000568
    vertex 244.87153587531938 -12.149016977615595 11.000000000000565
  endloop
endfacet
facet normal 1.169403115900097e-31 1.3751589110909807e-17 1.0
  outer loop
    vertex 244.87153587531938 -12.149016977615595 11.000000000000565
    vertex 249.57181037077595 -28.43376885558412 11.000000000000568
    vertex 245.69996300006557 -11.513342487224014 11.000000000000565
  endloop
endfacet
facet normal 1.169403115900097e-31 1.3751589110909807e-17 1.0
  outer loop
    vertex 245.69996300006557 -11.513342487224014 11.000000000000565
    vertex 249.57181037077595 -28.43376885558412 11.000000000000568
    vertex 246.33563749045715 -10.684915362477835 11.000000000000565
  endloop
endfacet
facet normal 1.169403115900097e-31 1.3751589110909807e-17 1.0
  outer loop
    vertex 246.33563749045715 -10.684915362477835 11.000000000000565
    vertex 249.57181037077595 -28.43376885558412 11.000000000000568
    vertex 246.73523918047567 -9.72019154288793 11.000000000000565
  endloop
endfacet
facet normal 1.169403115900097e-31 1.3751589110909807e-17 1.0
  outer loop
    vertex 246.73523918047567 -9.72019154288793 11.000000000000565
    vertex 249.57181037077595 -28.43376885558412 11.000000000000568
    vertex 246.87153587531935 -8.684915362477838 11.000000000000565
  endloop
endfacet
facet normal 1.169403115900097e-31 1.3751589110909807e-17 1.0
  outer loop
    vertex 231.37153587531938 -27.684915362477827 11.000000000000568
    vertex 230.3715358753194 9.315084637522174 11.000000000000568
    vertex 230.3715358753194 -27.515182577511073 11.000000000000568
  endloop
endfacet
facet normal 1.169403115900097e-31 1.3751589110909807e-17 1.0
  outer loop
    vertex 230.3715358753194 9.315084637522174 11.000000000000568
    vertex 231.37153587531938 -27.684915362477827 11.000000000000568
    vertex 239.00783257016312 -7.649639182067747 11.000000000000565
  endloop
endfacet
facet normal 1.169403115900097e-31 1.3751589110909807e-17 1.0
  outer loop
    vertex 230.3715358753194 9.315084637522174 11.000000000000568
    vertex 239.00783257016312 -7.649639182067747 11.000000000000565
    vertex 239.40743426018165 -6.684915362477843 11.000000000000565
  endloop
endfacet
facet normal 1.169403115900097e-31 1.3751589110909807e-17 1.0
  outer loop
    vertex 230.3715358753194 9.315084637522174 11.000000000000568
    vertex 239.40743426018165 -6.684915362477843 11.000000000000565
    vertex 240.04310875057323 -5.856488237731664 11.000000000000565
  endloop
endfacet
facet normal 1.169403115900097e-31 1.3751589110909807e-17 1.0
  outer loop
    vertex 230.3715358753194 9.315084637522174 11.000000000000568
    vertex 240.04310875057323 -5.856488237731664 11.000000000000565
    vertex 255.3715358753194 9.315084637522174 11.000000000000568
  endloop
endfacet
facet normal 1.169403115900097e-31 1.3751589110909807e-17 1.0
  outer loop
    vertex 239.00783257016312 -7.649639182067747 11.000000000000565
    vertex 231.37153587531938 -27.684915362477827 11.000000000000568
    vertex 231.44318650349322 -27.684915362477827 11.000000000000568
  endloop
endfacet
facet normal 1.169403115900097e-31 1.3751589110909807e-17 1.0
  outer loop
    vertex 239.00783257016312 -7.649639182067747 11.000000000000565
    vertex 231.44318650349322 -27.684915362477827 11.000000000000568
    vertex 236.17126137986273 -28.43376885558412 11.000000000000568
  endloop
endfacet
facet normal 1.169403115900097e-31 1.3751589110909807e-17 1.0
  outer loop
    vertex 239.00783257016312 -7.649639182067747 11.000000000000565
    vertex 236.17126137986273 -28.43376885558412 11.000000000000568
    vertex 238.87153587531938 -8.684915362477838 11.000000000000565
  endloop
endfacet
facet normal 1.169403115900097e-31 1.3751589110909807e-17 1.0
  outer loop
    vertex 255.3715358753194 9.315084637522174 11.000000000000568
    vertex 240.04310875057323 -5.856488237731664 11.000000000000565
    vertex 240.87153587531938 -5.220813747340082 11.000000000000565
  endloop
endfacet
facet normal 1.169403115900097e-31 1.3751589110909807e-17 1.0
  outer loop
    vertex 255.3715358753194 9.315084637522174 11.000000000000568
    vertex 240.87153587531938 -5.220813747340082 11.000000000000565
    vertex 241.83625969490933 -4.821212057321572 11.000000000000565
  endloop
endfacet
facet normal 1.169403115900097e-31 1.3751589110909807e-17 1.0
  outer loop
    vertex 255.3715358753194 9.315084637522174 11.000000000000568
    vertex 241.83625969490933 -4.821212057321572 11.000000000000565
    vertex 242.87153587531938 -4.684915362477846 11.000000000000565
  endloop
endfacet
facet normal 1.169403115900097e-31 1.3751589110909807e-17 1.0
  outer loop
    vertex 255.3715358753194 9.315084637522174 11.000000000000568
    vertex 242.87153587531938 -4.684915362477846 11.000000000000565
    vertex 243.90681205572952 -4.821212057321572 11.000000000000565
  endloop
endfacet
facet normal 1.169403115900097e-31 1.3751589110909807e-17 1.0
  outer loop
    vertex 255.3715358753194 9.315084637522174 11.000000000000568
    vertex 243.90681205572952 -4.821212057321572 11.000000000000565
    vertex 244.87153587531938 -5.220813747340082 11.000000000000565
  endloop
endfacet
facet normal 1.169403115900097e-31 1.3751589110909807e-17 1.0
  outer loop
    vertex 255.3715358753194 9.315084637522174 11.000000000000568
    vertex 244.87153587531938 -5.220813747340082 11.000000000000565
    vertex 245.69996300006557 -5.856488237731664 11.000000000000565
  endloop
endfacet
facet normal 1.169403115900097e-31 1.3751589110909807e-17 1.0
  outer loop
    vertex 255.3715358753194 9.315084637522174 11.000000000000568
    vertex 245.69996300006557 -5.856488237731664 11.000000000000565
    vertex 246.33563749045715 -6.684915362477843 11.000000000000565
  endloop
endfacet
facet normal 1.169403115900097e-31 1.3751589110909807e-17 1.0
  outer loop
    vertex 255.3715358753194 9.315084637522174 11.000000000000568
    vertex 246.33563749045715 -6.684915362477843 11.000000000000565
    vertex 246.73523918047567 -7.649639182067747 11.000000000000565
  endloop
endfacet
facet normal 1.169403115900097e-31 1.3751589110909807e-17 1.0
  outer loop
    vertex 255.3715358753194 9.315084637522174 11.000000000000568
    vertex 246.73523918047567 -7.649639182067747 11.000000000000565
    vertex 246.87153587531935 -8.684915362477838 11.000000000000565
  endloop
endfacet
facet normal 1.169403115900097e-31 1.3751589110909807e-17 1.0
  outer loop
    vertex 255.3715358753194 9.315084637522174 11.000000000000568
    vertex 246.87153587531935 -8.684915362477838 11.000000000000565
    vertex 249.57181037077595 -28.43376885558412 11.000000000000568
  endloop
endfacet
facet normal 1.169403115900097e-31 1.3751589110909807e-17 1.0
  outer loop
    vertex 255.3715358753194 9.315084637522174 11.000000000000568
    vertex 249.57181037077595 -28.43376885558412 11.000000000000568
    vertex 254.29988524714554 -27.684915362477827 11.000000000000568
  endloop
endfacet
facet normal 1.169403115900097e-31 1.3751589110909807e-17 1.0
  outer loop
    vertex 255.3715358753194 9.315084637522174 11.000000000000568
    vertex 254.29988524714554 -27.684915362477827 11.000000000000568
    vertex 254.37153587531938 -27.684915362477827 11.000000000000568
  endloop
endfacet
facet normal 1.169403115900097e-31 1.3751589110909807e-17 1.0
  outer loop
    vertex 255.3715358753194 9.315084637522174 11.000000000000568
    vertex 254.37153587531938 -27.684915362477827 11.000000000000568
    vertex 255.3715358753194 -27.515182577511073 11.000000000000568
  endloop
endfacet
facet normal 0.13052619222004555 0.9914448613738113 0.0
  outer loop
    vertex 242.48330730766563 -10.13380410191144 19.000000000000565
    vertex 242.87153587531938 -10.184915362477836 11.000000000000565
    vertex 242.48330730766563 -10.13380410191144 11.000000000000565
  endloop
endfacet
facet normal 0.13052619222004555 0.9914448613738113 0.0
  outer loop
    vertex 242.87153587531938 -10.184915362477836 11.000000000000565
    vertex 242.48330730766563 -10.13380410191144 19.000000000000565
    vertex 242.87153587531938 -10.184915362477836 19.000000000000565
  endloop
endfacet
facet normal -0.1564344650402328 -0.9876883405951375 1.358228422950069e-17
  outer loop
    vertex 236.17126137986273 -28.43376885558412 10.00000000000057
    vertex 231.44318650349322 -27.684915362477827 11.000000000000568
    vertex 231.44318650349322 -27.684915362477827 10.000000000000568
  endloop
endfacet
facet normal -0.1564344650402328 -0.9876883405951375 1.358228422950069e-17
  outer loop
    vertex 231.44318650349322 -27.684915362477827 11.000000000000568
    vertex 236.17126137986273 -28.43376885558412 10.00000000000057
    vertex 236.17126137986273 -28.43376885558412 11.000000000000568
  endloop
endfacet
facet normal 0.9238795325112845 -0.3826834323650952 0.0
  outer loop
    vertex 241.57249776964275 -7.934915362477828 11.000000000000565
    vertex 241.42264713588577 -8.29668679482406 19.000000000000565
    vertex 241.42264713588577 -8.29668679482406 11.000000000000565
  endloop
endfacet
facet normal 0.9238795325112845 -0.3826834323650952 0.0
  outer loop
    vertex 241.42264713588577 -8.29668679482406 19.000000000000565
    vertex 241.57249776964275 -7.934915362477828 11.000000000000565
    vertex 241.57249776964275 -7.934915362477828 19.000000000000565
  endloop
endfacet
facet normal -1.1723807028751864e-31 -1.3751589110909809e-17 -1.0
  outer loop
    vertex 230.3715358753194 9.315084637522174 10.000000000000568
    vertex 239.40743426018165 -6.684915362477843 10.000000000000565
    vertex 230.3715358753194 -27.515182577511073 10.000000000000568
  endloop
endfacet
facet normal -1.1723807028751864e-31 -1.3751589110909809e-17 -1.0
  outer loop
    vertex 239.40743426018165 -6.684915362477843 10.000000000000565
    vertex 230.3715358753194 9.315084637522174 10.000000000000568
    vertex 240.04310875057323 -5.856488237731664 10.000000000000565
  endloop
endfacet
facet normal -1.1723807028751864e-31 -1.3751589110909809e-17 -1.0
  outer loop
    vertex 240.04310875057323 -5.856488237731664 10.000000000000565
    vertex 230.3715358753194 9.315084637522174 10.000000000000568
    vertex 255.3715358753194 9.315084637522174 10.000000000000568
  endloop
endfacet
facet normal -1.1723807028751864e-31 -1.3751589110909809e-17 -1.0
  outer loop
    vertex 230.3715358753194 -27.515182577511073 10.000000000000568
    vertex 239.40743426018165 -6.684915362477843 10.000000000000565
    vertex 239.00783257016312 -7.649639182067747 10.000000000000565
  endloop
endfacet
facet normal -1.1723807028751864e-31 -1.3751589110909809e-17 -1.0
  outer loop
    vertex 230.3715358753194 -27.515182577511073 10.000000000000568
    vertex 239.00783257016312 -7.649639182067747 10.000000000000565
    vertex 231.37153587531938 -27.684915362477827 10.000000000000568
  endloop
endfacet
facet normal -1.1723807028751864e-31 -1.3751589110909809e-17 -1.0
  outer loop
    vertex 231.37153587531938 -27.684915362477827 10.000000000000568
    vertex 239.00783257016312 -7.649639182067747 10.000000000000565
    vertex 231.44318650349322 -27.684915362477827 10.000000000000568
  endloop
endfacet
facet normal -1.1723807028751864e-31 -1.3751589110909809e-17 -1.0
  outer loop
    vertex 231.44318650349322 -27.684915362477827 10.000000000000568
    vertex 239.00783257016312 -7.649639182067747 10.000000000000565
    vertex 236.17126137986273 -28.43376885558412 10.00000000000057
  endloop
endfacet
facet normal -1.1723807028751864e-31 -1.3751589110909809e-17 -1.0
  outer loop
    vertex 236.17126137986273 -28.43376885558412 10.00000000000057
    vertex 239.00783257016312 -7.649639182067747 10.000000000000565
    vertex 238.87153587531938 -8.684915362477838 10.000000000000565
  endloop
endfacet
facet normal -1.1723807028751864e-31 -1.3751589110909809e-17 -1.0
  outer loop
    vertex 240.04310875057323 -5.856488237731664 10.000000000000565
    vertex 255.3715358753194 9.315084637522174 10.000000000000568
    vertex 240.87153587531938 -5.220813747340082 10.000000000000565
  endloop
endfacet
facet normal -1.1723807028751864e-31 -1.3751589110909809e-17 -1.0
  outer loop
    vertex 240.87153587531938 -5.220813747340082 10.000000000000565
    vertex 255.3715358753194 9.315084637522174 10.000000000000568
    vertex 241.83625969490933 -4.821212057321572 10.000000000000565
  endloop
endfacet
facet normal -1.1723807028751864e-31 -1.3751589110909809e-17 -1.0
  outer loop
    vertex 241.83625969490933 -4.821212057321572 10.000000000000565
    vertex 255.3715358753194 9.315084637522174 10.000000000000568
    vertex 242.87153587531938 -4.684915362477846 10.000000000000565
  endloop
endfacet
facet normal -1.1723807028751864e-31 -1.3751589110909809e-17 -1.0
  outer loop
    vertex 242.87153587531938 -4.684915362477846 10.000000000000565
    vertex 255.3715358753194 9.315084637522174 10.000000000000568
    vertex 243.90681205572952 -4.821212057321572 10.000000000000565
  endloop
endfacet
facet normal -1.1723807028751864e-31 -1.3751589110909809e-17 -1.0
  outer loop
    vertex 243.90681205572952 -4.821212057321572 10.000000000000565
    vertex 255.3715358753194 9.315084637522174 10.000000000000568
    vertex 244.87153587531938 -5.220813747340082 10.000000000000565
  endloop
endfacet
facet normal -1.1723807028751864e-31 -1.3751589110909809e-17 -1.0
  outer loop
    vertex 244.87153587531938 -5.220813747340082 10.000000000000565
    vertex 255.3715358753194 9.315084637522174 10.000000000000568
    vertex 245.69996300006557 -5.856488237731664 10.000000000000565
  endloop
endfacet
facet normal -1.1723807028751864e-31 -1.3751589110909809e-17 -1.0
  outer loop
    vertex 245.69996300006557 -5.856488237731664 10.000000000000565
    vertex 255.3715358753194 9.315084637522174 10.000000000000568
    vertex 246.33563749045715 -6.684915362477843 10.000000000000565
  endloop
endfacet
facet normal -1.1723807028751864e-31 -1.3751589110909809e-17 -1.0
  outer loop
    vertex 246.33563749045715 -6.684915362477843 10.000000000000565
    vertex 255.3715358753194 9.315084637522174 10.000000000000568
    vertex 246.73523918047567 -7.649639182067747 10.000000000000565
  endloop
endfacet
facet normal -1.1723807028751864e-31 -1.3751589110909809e-17 -1.0
  outer loop
    vertex 246.73523918047567 -7.649639182067747 10.000000000000565
    vertex 255.3715358753194 9.315084637522174 10.000000000000568
    vertex 246.87153587531935 -8.684915362477838 10.000000000000565
  endloop
endfacet
facet normal -1.1723807028751864e-31 -1.3751589110909809e-17 -1.0
  outer loop
    vertex 246.87153587531935 -8.684915362477838 10.000000000000565
    vertex 255.3715358753194 9.315084637522174 10.000000000000568
    vertex 249.57181037077595 -28.43376885558412 10.00000000000057
  endloop
endfacet
facet normal -1.1723807028751864e-31 -1.3751589110909809e-17 -1.0
  outer loop
    vertex 249.57181037077595 -28.43376885558412 10.00000000000057
    vertex 255.3715358753194 9.315084637522174 10.000000000000568
    vertex 254.29988524714554 -27.684915362477827 10.000000000000568
  endloop
endfacet
facet normal -1.1723807028751864e-31 -1.3751589110909809e-17 -1.0
  outer loop
    vertex 254.29988524714554 -27.684915362477827 10.000000000000568
    vertex 255.3715358753194 9.315084637522174 10.000000000000568
    vertex 254.37153587531938 -27.684915362477827 10.000000000000568
  endloop
endfacet
facet normal -1.1723807028751864e-31 -1.3751589110909809e-17 -1.0
  outer loop
    vertex 254.37153587531938 -27.684915362477827 10.000000000000568
    vertex 255.3715358753194 9.315084637522174 10.000000000000568
    vertex 255.3715358753194 -27.515182577511073 10.000000000000568
  endloop
endfacet
facet normal -1.1723807028751864e-31 -1.3751589110909809e-17 -1.0
  outer loop
    vertex 236.17126137986273 -28.43376885558412 10.00000000000057
    vertex 239.00783257016312 -9.720191542887907 10.000000000000565
    vertex 242.87153587531938 -28.7849153624778 10.00000000000057
  endloop
endfacet
facet normal -1.1723807028751864e-31 -1.3751589110909809e-17 -1.0
  outer loop
    vertex 239.00783257016312 -9.720191542887907 10.000000000000565
    vertex 236.17126137986273 -28.43376885558412 10.00000000000057
    vertex 238.87153587531938 -8.684915362477838 10.000000000000565
  endloop
endfacet
facet normal -1.1723807028751864e-31 -1.3751589110909809e-17 -1.0
  outer loop
    vertex 242.87153587531938 -28.7849153624778 10.00000000000057
    vertex 239.00783257016312 -9.720191542887907 10.000000000000565
    vertex 239.40743426018165 -10.684915362477835 10.000000000000565
  endloop
endfacet
facet normal -1.1723807028751864e-31 -1.3751589110909809e-17 -1.0
  outer loop
    vertex 242.87153587531938 -28.7849153624778 10.00000000000057
    vertex 239.40743426018165 -10.684915362477835 10.000000000000565
    vertex 240.04310875057317 -11.513342487224014 10.000000000000565
  endloop
endfacet
facet normal -1.1723807028751864e-31 -1.3751589110909809e-17 -1.0
  outer loop
    vertex 242.87153587531938 -28.7849153624778 10.00000000000057
    vertex 240.04310875057317 -11.513342487224014 10.000000000000565
    vertex 240.87153587531938 -12.149016977615595 10.000000000000565
  endloop
endfacet
facet normal -1.1723807028751864e-31 -1.3751589110909809e-17 -1.0
  outer loop
    vertex 242.87153587531938 -28.7849153624778 10.00000000000057
    vertex 240.87153587531938 -12.149016977615595 10.000000000000565
    vertex 241.83625969490933 -12.548618667634104 10.000000000000565
  endloop
endfacet
facet normal -1.1723807028751864e-31 -1.3751589110909809e-17 -1.0
  outer loop
    vertex 242.87153587531938 -28.7849153624778 10.00000000000057
    vertex 241.83625969490933 -12.548618667634104 10.000000000000565
    vertex 242.87153587531938 -12.684915362477831 10.000000000000565
  endloop
endfacet
facet normal -1.1723807028751864e-31 -1.3751589110909809e-17 -1.0
  outer loop
    vertex 242.87153587531938 -28.7849153624778 10.00000000000057
    vertex 242.87153587531938 -12.684915362477831 10.000000000000565
    vertex 249.57181037077595 -28.43376885558412 10.00000000000057
  endloop
endfacet
facet normal -1.1723807028751864e-31 -1.3751589110909809e-17 -1.0
  outer loop
    vertex 249.57181037077595 -28.43376885558412 10.00000000000057
    vertex 242.87153587531938 -12.684915362477831 10.000000000000565
    vertex 243.90681205572946 -12.548618667634104 10.000000000000565
  endloop
endfacet
facet normal -1.1723807028751864e-31 -1.3751589110909809e-17 -1.0
  outer loop
    vertex 249.57181037077595 -28.43376885558412 10.00000000000057
    vertex 243.90681205572946 -12.548618667634104 10.000000000000565
    vertex 244.87153587531938 -12.149016977615595 10.000000000000565
  endloop
endfacet
facet normal -1.1723807028751864e-31 -1.3751589110909809e-17 -1.0
  outer loop
    vertex 249.57181037077595 -28.43376885558412 10.00000000000057
    vertex 244.87153587531938 -12.149016977615595 10.000000000000565
    vertex 245.69996300006557 -11.513342487224014 10.000000000000565
  endloop
endfacet
facet normal -1.1723807028751864e-31 -1.3751589110909809e-17 -1.0
  outer loop
    vertex 249.57181037077595 -28.43376885558412 10.00000000000057
    vertex 245.69996300006557 -11.513342487224014 10.000000000000565
    vertex 246.33563749045715 -10.684915362477835 10.000000000000565
  endloop
endfacet
facet normal -1.1723807028751864e-31 -1.3751589110909809e-17 -1.0
  outer loop
    vertex 249.57181037077595 -28.43376885558412 10.00000000000057
    vertex 246.33563749045715 -10.684915362477835 10.000000000000565
    vertex 246.73523918047567 -9.72019154288793 10.000000000000565
  endloop
endfacet
facet normal -1.1723807028751864e-31 -1.3751589110909809e-17 -1.0
  outer loop
    vertex 249.57181037077595 -28.43376885558412 10.00000000000057
    vertex 246.73523918047567 -9.72019154288793 10.000000000000565
    vertex 246.87153587531935 -8.684915362477838 10.000000000000565
  endloop
endfacet
facet normal -0.6087614290087366 0.7933533402912231 1.7499402840901335e-18
  outer loop
    vertex 240.04310875057323 -5.856488237731664 19.000000000000565
    vertex 240.87153587531938 -5.220813747340082 11.000000000000565
    vertex 240.04310875057323 -5.856488237731664 11.000000000000565
  endloop
endfacet
facet normal -0.6087614290087366 0.7933533402912231 1.7499402840901335e-18
  outer loop
    vertex 240.87153587531938 -5.220813747340082 11.000000000000565
    vertex 240.04310875057323 -5.856488237731664 19.000000000000565
    vertex 240.87153587531938 -5.220813747340082 19.000000000000565
  endloop
endfacet
facet normal 0.9914448613738105 -0.13052619222005074 3.240073436516307e-31
  outer loop
    vertex 246.87153587531935 -8.684915362477838 11.000000000000565
    vertex 246.73523918047567 -9.72019154288793 19.000000000000565
    vertex 246.73523918047567 -9.72019154288793 11.000000000000565
  endloop
endfacet
facet normal 0.9914448613738105 -0.13052619222005074 3.240073436516307e-31
  outer loop
    vertex 246.73523918047567 -9.72019154288793 19.000000000000565
    vertex 246.87153587531935 -8.684915362477838 11.000000000000565
    vertex 246.87153587531935 -8.684915362477838 19.000000000000565
  endloop
endfacet
facet normal -0.9238795325112884 0.38268343236508606 -5.500292252738349e-19
  outer loop
    vertex 239.40743426018165 -6.684915362477843 19.000000000000565
    vertex 239.00783257016312 -7.649639182067747 11.000000000000565
    vertex 239.00783257016312 -7.649639182067747 19.000000000000565
  endloop
endfacet
facet normal -0.9238795325112884 0.38268343236508606 -5.500292252738349e-19
  outer loop
    vertex 239.00783257016312 -7.649639182067747 11.000000000000565
    vertex 239.40743426018165 -6.684915362477843 19.000000000000565
    vertex 239.40743426018165 -6.684915362477843 11.000000000000565
  endloop
endfacet
facet normal 0.6087614290087368 -0.7933533402912228 8.749701420435926e-19
  outer loop
    vertex 245.69996300006557 -11.513342487224014 19.000000000000565
    vertex 244.87153587531938 -12.149016977615595 11.000000000000565
    vertex 245.69996300006557 -11.513342487224014 11.000000000000565
  endloop
endfacet
facet normal 0.6087614290087368 -0.7933533402912228 8.749701420435926e-19
  outer loop
    vertex 244.87153587531938 -12.149016977615595 11.000000000000565
    vertex 245.69996300006557 -11.513342487224014 19.000000000000565
    vertex 244.87153587531938 -12.149016977615595 19.000000000000565
  endloop
endfacet
facet normal -0.13052619222005074 0.9914448613738105 -2.386945915948416e-31
  outer loop
    vertex 241.83625969490933 -4.821212057321572 19.000000000000565
    vertex 242.87153587531938 -4.684915362477846 11.000000000000565
    vertex 241.83625969490933 -4.821212057321572 11.000000000000565
  endloop
endfacet
facet normal -0.13052619222005074 0.9914448613738105 -2.386945915948416e-31
  outer loop
    vertex 242.87153587531938 -4.684915362477846 11.000000000000565
    vertex 241.83625969490933 -4.821212057321572 19.000000000000565
    vertex 242.87153587531938 -4.684915362477846 19.000000000000565
  endloop
endfacet
facet normal -0.7933533402912335 -0.6087614290087231 -8.749701420446282e-19
  outer loop
    vertex 239.40743426018165 -10.684915362477835 19.000000000000565
    vertex 240.04310875057317 -11.513342487224014 11.000000000000565
    vertex 240.04310875057317 -11.513342487224014 19.000000000000565
  endloop
endfacet
facet normal -0.7933533402912335 -0.6087614290087231 -8.749701420446282e-19
  outer loop
    vertex 240.04310875057317 -11.513342487224014 11.000000000000565
    vertex 239.40743426018165 -10.684915362477835 19.000000000000565
    vertex 239.40743426018165 -10.684915362477835 11.000000000000565
  endloop
endfacet
facet normal -0.9914448613738103 -0.13052619222005354 -3.752094515363315e-19
  outer loop
    vertex 238.87153587531938 -8.684915362477838 19.000000000000565
    vertex 239.00783257016312 -9.720191542887907 11.000000000000565
    vertex 239.00783257016312 -9.720191542887907 19.000000000000565
  endloop
endfacet
facet normal -0.9914448613738103 -0.13052619222005354 -3.752094515363315e-19
  outer loop
    vertex 239.00783257016312 -9.720191542887907 11.000000000000565
    vertex 238.87153587531938 -8.684915362477838 19.000000000000565
    vertex 238.87153587531938 -8.684915362477838 11.000000000000565
  endloop
endfacet
facet normal 0.0 0.0 1.0
  outer loop
    vertex 239.00783257016312 -9.720191542887907 19.000000000000565
    vertex 239.00783257016312 -7.649639182067747 19.000000000000565
    vertex 238.87153587531938 -8.684915362477838 19.000000000000565
  endloop
endfacet
facet normal 0.0 0.0 1.0
  outer loop
    vertex 239.00783257016312 -7.649639182067747 19.000000000000565
    vertex 239.00783257016312 -9.720191542887907 19.000000000000565
    vertex 239.40743426018165 -10.684915362477835 19.000000000000565
  endloop
endfacet
facet normal 0.0 0.0 1.0
  outer loop
    vertex 239.00783257016312 -7.649639182067747 19.000000000000565
    vertex 239.40743426018165 -10.684915362477835 19.000000000000565
    vertex 239.40743426018165 -6.684915362477843 19.000000000000565
  endloop
endfacet
facet normal 0.0 0.0 1.0
  outer loop
    vertex 239.40743426018165 -6.684915362477843 19.000000000000565
    vertex 239.40743426018165 -10.684915362477835 19.000000000000565
    vertex 240.04310875057317 -11.513342487224014 19.000000000000565
  endloop
endfacet
facet normal 0.0 0.0 1.0
  outer loop
    vertex 239.40743426018165 -6.684915362477843 19.000000000000565
    vertex 240.04310875057317 -11.513342487224014 19.000000000000565
    vertex 240.04310875057323 -5.856488237731664 19.000000000000565
  endloop
endfacet
facet normal 0.0 0.0 1.0
  outer loop
    vertex 240.04310875057323 -5.856488237731664 19.000000000000565
    vertex 240.04310875057317 -11.513342487224014 19.000000000000565
    vertex 240.87153587531938 -12.149016977615595 19.000000000000565
  endloop
endfacet
facet normal 0.0 0.0 1.0
  outer loop
    vertex 240.04310875057323 -5.856488237731664 19.000000000000565
    vertex 240.87153587531938 -12.149016977615595 19.000000000000565
    vertex 240.87153587531938 -5.220813747340082 19.000000000000565
  endloop
endfacet
facet normal 0.0 0.0 1.0
  outer loop
    vertex 240.87153587531938 -5.220813747340082 19.000000000000565
    vertex 240.87153587531938 -12.149016977615595 19.000000000000565
    vertex 241.83625969490933 -12.548618667634104 19.000000000000565
  endloop
endfacet
facet normal 0.0 0.0 1.0
  outer loop
    vertex 240.87153587531938 -5.220813747340082 19.000000000000565
    vertex 241.83625969490933 -12.548618667634104 19.000000000000565
    vertex 241.3715358753194 -8.684915362477838 19.000000000000565
  endloop
endfacet
facet normal 0.0 0.0 1.0
  outer loop
    vertex 241.3715358753194 -8.684915362477838 19.000000000000565
    vertex 241.83625969490933 -12.548618667634104 19.000000000000565
    vertex 241.42264713588577 -9.073143930131618 19.000000000000565
  endloop
endfacet
facet normal 0.0 0.0 1.0
  outer loop
    vertex 241.42264713588577 -9.073143930131618 19.000000000000565
    vertex 241.83625969490933 -12.548618667634104 19.000000000000565
    vertex 241.57249776964275 -9.434915362477826 19.000000000000565
  endloop
endfacet
facet normal 0.0 0.0 1.0
  outer loop
    vertex 241.57249776964275 -9.434915362477826 19.000000000000565
    vertex 241.83625969490933 -12.548618667634104 19.000000000000565
    vertex 241.81087570353958 -9.745575534257663 19.000000000000565
  endloop
endfacet
facet normal 0.0 0.0 1.0
  outer loop
    vertex 241.81087570353958 -9.745575534257663 19.000000000000565
    vertex 241.83625969490933 -12.548618667634104 19.000000000000565
    vertex 242.12153587531935 -9.983953468154489 19.000000000000565
  endloop
endfacet
facet normal 0.0 0.0 1.0
  outer loop
    vertex 242.12153587531935 -9.983953468154489 19.000000000000565
    vertex 241.83625969490933 -12.548618667634104 19.000000000000565
    vertex 242.87153587531938 -12.684915362477831 19.000000000000565
  endloop
endfacet
facet normal 0.0 0.0 1.0
  outer loop
    vertex 242.12153587531935 -9.983953468154489 19.000000000000565
    vertex 242.87153587531938 -12.684915362477831 19.000000000000565
    vertex 242.48330730766563 -10.13380410191144 19.000000000000565
  endloop
endfacet
facet normal 0.0 0.0 1.0
  outer loop
    vertex 242.48330730766563 -10.13380410191144 19.000000000000565
    vertex 242.87153587531938 -12.684915362477831 19.000000000000565
    vertex 242.87153587531938 -10.184915362477836 19.000000000000565
  endloop
endfacet
facet normal 0.0 0.0 1.0
  outer loop
    vertex 242.87153587531938 -10.184915362477836 19.000000000000565
    vertex 242.87153587531938 -12.684915362477831 19.000000000000565
    vertex 243.90681205572946 -12.548618667634104 19.000000000000565
  endloop
endfacet
facet normal 0.0 0.0 1.0
  outer loop
    vertex 242.87153587531938 -10.184915362477836 19.000000000000565
    vertex 243.90681205572946 -12.548618667634104 19.000000000000565
    vertex 243.25976444297316 -10.13380410191144 19.000000000000565
  endloop
endfacet
facet normal 0.0 0.0 1.0
  outer loop
    vertex 243.25976444297316 -10.13380410191144 19.000000000000565
    vertex 243.90681205572946 -12.548618667634104 19.000000000000565
    vertex 243.62153587531938 -9.983953468154489 19.000000000000565
  endloop
endfacet
facet normal 0.0 0.0 1.0
  outer loop
    vertex 243.62153587531938 -9.983953468154489 19.000000000000565
    vertex 243.90681205572946 -12.548618667634104 19.000000000000565
    vertex 243.9321960470992 -9.745575534257663 19.000000000000565
  endloop
endfacet
facet normal 0.0 0.0 1.0
  outer loop
    vertex 243.9321960470992 -9.745575534257663 19.000000000000565
    vertex 243.90681205572946 -12.548618667634104 19.000000000000565
    vertex 244.87153587531938 -12.149016977615595 19.000000000000565
  endloop
endfacet
facet normal 0.0 0.0 1.0
  outer loop
    vertex 243.9321960470992 -9.745575534257663 19.000000000000565
    vertex 244.87153587531938 -12.149016977615595 19.000000000000565
    vertex 244.17057398099604 -9.434915362477849 19.000000000000565
  endloop
endfacet
facet normal 0.0 0.0 1.0
  outer loop
    vertex 244.17057398099604 -9.434915362477849 19.000000000000565
    vertex 244.87153587531938 -12.149016977615595 19.000000000000565
    vertex 244.32042461475297 -9.073143930131618 19.000000000000565
  endloop
endfacet
facet normal 0.0 0.0 1.0
  outer loop
    vertex 244.32042461475297 -9.073143930131618 19.000000000000565
    vertex 244.87153587531938 -12.149016977615595 19.000000000000565
    vertex 244.37153587531938 -8.684915362477838 19.000000000000565
  endloop
endfacet
facet normal 0.0 0.0 1.0
  outer loop
    vertex 241.3715358753194 -8.684915362477838 19.000000000000565
    vertex 241.83625969490933 -4.821212057321572 19.000000000000565
    vertex 240.87153587531938 -5.220813747340082 19.000000000000565
  endloop
endfacet
facet normal 0.0 0.0 1.0
  outer loop
    vertex 241.83625969490933 -4.821212057321572 19.000000000000565
    vertex 241.3715358753194 -8.684915362477838 19.000000000000565
    vertex 241.42264713588577 -8.29668679482406 19.000000000000565
  endloop
endfacet
facet normal 0.0 0.0 1.0
  outer loop
    vertex 241.83625969490933 -4.821212057321572 19.000000000000565
    vertex 241.42264713588577 -8.29668679482406 19.000000000000565
    vertex 241.57249776964275 -7.934915362477828 19.000000000000565
  endloop
endfacet
facet normal 0.0 0.0 1.0
  outer loop
    vertex 241.83625969490933 -4.821212057321572 19.000000000000565
    vertex 241.57249776964275 -7.934915362477828 19.000000000000565
    vertex 241.81087570353958 -7.6242551906980145 19.000000000000565
  endloop
endfacet
facet normal 0.0 0.0 1.0
  outer loop
    vertex 241.83625969490933 -4.821212057321572 19.000000000000565
    vertex 241.81087570353958 -7.6242551906980145 19.000000000000565
    vertex 242.1215358753194 -7.385877256801188 19.000000000000565
  endloop
endfacet
facet normal 0.0 0.0 1.0
  outer loop
    vertex 241.83625969490933 -4.821212057321572 19.000000000000565
    vertex 242.1215358753194 -7.385877256801188 19.000000000000565
    vertex 242.87153587531938 -4.684915362477846 19.000000000000565
  endloop
endfacet
facet normal 0.0 0.0 1.0
  outer loop
    vertex 242.87153587531938 -4.684915362477846 19.000000000000565
    vertex 242.1215358753194 -7.385877256801188 19.000000000000565
    vertex 242.48330730766563 -7.2360266230442365 19.000000000000565
  endloop
endfacet
facet normal 0.0 0.0 1.0
  outer loop
    vertex 242.87153587531938 -4.684915362477846 19.000000000000565
    vertex 242.48330730766563 -7.2360266230442365 19.000000000000565
    vertex 242.87153587531938 -7.184915362477842 19.000000000000565
  endloop
endfacet
facet normal 0.0 0.0 1.0
  outer loop
    vertex 242.87153587531938 -4.684915362477846 19.000000000000565
    vertex 242.87153587531938 -7.184915362477842 19.000000000000565
    vertex 243.25976444297316 -7.2360266230442365 19.000000000000565
  endloop
endfacet
facet normal 0.0 0.0 1.0
  outer loop
    vertex 242.87153587531938 -4.684915362477846 19.000000000000565
    vertex 243.25976444297316 -7.2360266230442365 19.000000000000565
    vertex 243.90681205572952 -4.821212057321572 19.000000000000565
  endloop
endfacet
facet normal 0.0 0.0 1.0
  outer loop
    vertex 243.90681205572952 -4.821212057321572 19.000000000000565
    vertex 243.25976444297316 -7.2360266230442365 19.000000000000565
    vertex 243.62153587531938 -7.385877256801188 19.000000000000565
  endloop
endfacet
facet normal 0.0 0.0 1.0
  outer loop
    vertex 243.90681205572952 -4.821212057321572 19.000000000000565
    vertex 243.62153587531938 -7.385877256801188 19.000000000000565
    vertex 243.9321960470992 -7.6242551906980145 19.000000000000565
  endloop
endfacet
facet normal 0.0 0.0 1.0
  outer loop
    vertex 243.90681205572952 -4.821212057321572 19.000000000000565
    vertex 243.9321960470992 -7.6242551906980145 19.000000000000565
    vertex 244.87153587531938 -5.220813747340082 19.000000000000565
  endloop
endfacet
facet normal 0.0 0.0 1.0
  outer loop
    vertex 244.87153587531938 -5.220813747340082 19.000000000000565
    vertex 243.9321960470992 -7.6242551906980145 19.000000000000565
    vertex 244.17057398099604 -7.9349153624778515 19.000000000000565
  endloop
endfacet
facet normal 0.0 0.0 1.0
  outer loop
    vertex 244.87153587531938 -5.220813747340082 19.000000000000565
    vertex 244.17057398099604 -7.9349153624778515 19.000000000000565
    vertex 244.32042461475297 -8.29668679482406 19.000000000000565
  endloop
endfacet
facet normal 0.0 0.0 1.0
  outer loop
    vertex 244.87153587531938 -5.220813747340082 19.000000000000565
    vertex 244.32042461475297 -8.29668679482406 19.000000000000565
    vertex 244.37153587531938 -8.684915362477838 19.000000000000565
  endloop
endfacet
facet normal 0.0 0.0 1.0
  outer loop
    vertex 244.87153587531938 -5.220813747340082 19.000000000000565
    vertex 244.37153587531938 -8.684915362477838 19.000000000000565
    vertex 244.87153587531938 -12.149016977615595 19.000000000000565
  endloop
endfacet
facet normal 0.0 0.0 1.0
  outer loop
    vertex 244.87153587531938 -5.220813747340082 19.000000000000565
    vertex 244.87153587531938 -12.149016977615595 19.000000000000565
    vertex 245.69996300006557 -11.513342487224014 19.000000000000565
  endloop
endfacet
facet normal 0.0 0.0 1.0
  outer loop
    vertex 244.87153587531938 -5.220813747340082 19.000000000000565
    vertex 245.69996300006557 -11.513342487224014 19.000000000000565
    vertex 245.69996300006557 -5.856488237731664 19.000000000000565
  endloop
endfacet
facet normal 0.0 0.0 1.0
  outer loop
    vertex 245.69996300006557 -5.856488237731664 19.000000000000565
    vertex 245.69996300006557 -11.513342487224014 19.000000000000565
    vertex 246.33563749045715 -10.684915362477835 19.000000000000565
  endloop
endfacet
facet normal 0.0 0.0 1.0
  outer loop
    vertex 245.69996300006557 -5.856488237731664 19.000000000000565
    vertex 246.33563749045715 -10.684915362477835 19.000000000000565
    vertex 246.33563749045715 -6.684915362477843 19.000000000000565
  endloop
endfacet
facet normal 0.0 0.0 1.0
  outer loop
    vertex 246.33563749045715 -6.684915362477843 19.000000000000565
    vertex 246.33563749045715 -10.684915362477835 19.000000000000565
    vertex 246.73523918047567 -9.72019154288793 19.000000000000565
  endloop
endfacet
facet normal 0.0 0.0 1.0
  outer loop
    vertex 246.33563749045715 -6.684915362477843 19.000000000000565
    vertex 246.73523918047567 -9.72019154288793 19.000000000000565
    vertex 246.73523918047567 -7.649639182067747 19.000000000000565
  endloop
endfacet
facet normal 0.0 0.0 1.0
  outer loop
    vertex 246.73523918047567 -7.649639182067747 19.000000000000565
    vertex 246.73523918047567 -9.72019154288793 19.000000000000565
    vertex 246.87153587531935 -8.684915362477838 19.000000000000565
  endloop
endfacet
facet normal 0.7933533402912231 -0.6087614290087366 -1.7499402840901335e-18
  outer loop
    vertex 246.33563749045715 -10.684915362477835 11.000000000000565
    vertex 245.69996300006557 -11.513342487224014 19.000000000000565
    vertex 245.69996300006557 -11.513342487224014 11.000000000000565
  endloop
endfacet
facet normal 0.7933533402912231 -0.6087614290087366 -1.7499402840901335e-18
  outer loop
    vertex 245.69996300006557 -11.513342487224014 19.000000000000565
    vertex 246.33563749045715 -10.684915362477835 11.000000000000565
    vertex 246.33563749045715 -10.684915362477835 19.000000000000565
  endloop
endfacet
facet normal 0.7933533402912231 0.6087614290087366 -8.74970142044907e-19
  outer loop
    vertex 245.69996300006557 -5.856488237731664 11.000000000000565
    vertex 246.33563749045715 -6.684915362477843 19.000000000000565
    vertex 246.33563749045715 -6.684915362477843 11.000000000000565
  endloop
endfacet
facet normal 0.7933533402912231 0.6087614290087366 -8.74970142044907e-19
  outer loop
    vertex 246.33563749045715 -6.684915362477843 19.000000000000565
    vertex 245.69996300006557 -5.856488237731664 11.000000000000565
    vertex 245.69996300006557 -5.856488237731664 19.000000000000565
  endloop
endfacet
facet normal -0.9238795325112916 -0.3826834323650784 -2.314031683502123e-18
  outer loop
    vertex 239.00783257016312 -9.720191542887907 19.000000000000565
    vertex 239.40743426018165 -10.684915362477835 11.000000000000565
    vertex 239.40743426018165 -10.684915362477835 19.000000000000565
  endloop
endfacet
facet normal -0.9238795325112916 -0.3826834323650784 -2.314031683502123e-18
  outer loop
    vertex 239.40743426018165 -10.684915362477835 11.000000000000565
    vertex 239.00783257016312 -9.720191542887907 19.000000000000565
    vertex 239.00783257016312 -9.720191542887907 11.000000000000565
  endloop
endfacet
facet normal 0.3826834323650859 0.9238795325112884 2.200116901097504e-18
  outer loop
    vertex 243.90681205572952 -4.821212057321572 19.000000000000565
    vertex 244.87153587531938 -5.220813747340082 11.000000000000565
    vertex 243.90681205572952 -4.821212057321572 11.000000000000565
  endloop
endfacet
facet normal 0.3826834323650859 0.9238795325112884 2.200116901097504e-18
  outer loop
    vertex 244.87153587531938 -5.220813747340082 11.000000000000565
    vertex 243.90681205572952 -4.821212057321572 19.000000000000565
    vertex 244.87153587531938 -5.220813747340082 19.000000000000565
  endloop
endfacet
facet normal 0.13052619222005357 -0.9914448613738103 -3.752094515356836e-19
  outer loop
    vertex 243.90681205572946 -12.548618667634104 19.000000000000565
    vertex 242.87153587531938 -12.684915362477831 11.000000000000565
    vertex 243.90681205572946 -12.548618667634104 11.000000000000565
  endloop
endfacet
facet normal 0.13052619222005357 -0.9914448613738103 -3.752094515356836e-19
  outer loop
    vertex 242.87153587531938 -12.684915362477831 11.000000000000565
    vertex 243.90681205572946 -12.548618667634104 19.000000000000565
    vertex 242.87153587531938 -12.684915362477831 19.000000000000565
  endloop
endfacet
facet normal -0.7933533402912228 0.6087614290087368 -1.749940284089615e-18
  outer loop
    vertex 240.04310875057323 -5.856488237731664 19.000000000000565
    vertex 239.40743426018165 -6.684915362477843 11.000000000000565
    vertex 239.40743426018165 -6.684915362477843 19.000000000000565
  endloop
endfacet
facet normal -0.7933533402912228 0.6087614290087368 -1.749940284089615e-18
  outer loop
    vertex 239.40743426018165 -6.684915362477843 11.000000000000565
    vertex 240.04310875057323 -5.856488237731664 19.000000000000565
    vertex 240.04310875057323 -5.856488237731664 11.000000000000565
  endloop
endfacet
facet normal 0.9914448613738105 0.13052619222005077 3.240073436516307e-31
  outer loop
    vertex 246.73523918047567 -7.649639182067747 11.000000000000565
    vertex 246.87153587531935 -8.684915362477838 19.000000000000565
    vertex 246.87153587531935 -8.684915362477838 11.000000000000565
  endloop
endfacet
facet normal 0.9914448613738105 0.13052619222005077 3.240073436516307e-31
  outer loop
    vertex 246.87153587531935 -8.684915362477838 19.000000000000565
    vertex 246.73523918047567 -7.649639182067747 11.000000000000565
    vertex 246.73523918047567 -7.649639182067747 19.000000000000565
  endloop
endfacet
facet normal -0.38268343236508595 -0.9238795325112884 -5.500292252744387e-19
  outer loop
    vertex 241.83625969490933 -12.548618667634104 19.000000000000565
    vertex 240.87153587531938 -12.149016977615595 11.000000000000565
    vertex 241.83625969490933 -12.548618667634104 11.000000000000565
  endloop
endfacet
facet normal -0.38268343236508595 -0.9238795325112884 -5.500292252744387e-19
  outer loop
    vertex 240.87153587531938 -12.149016977615595 11.000000000000565
    vertex 241.83625969490933 -12.548618667634104 19.000000000000565
    vertex 240.87153587531938 -12.149016977615595 19.000000000000565
  endloop
endfacet
facet normal 0.608761429008737 0.7933533402912228 -7.829472609772578e-32
  outer loop
    vertex 244.87153587531938 -5.220813747340082 19.000000000000565
    vertex 245.69996300006557 -5.856488237731664 11.000000000000565
    vertex 244.87153587531938 -5.220813747340082 11.000000000000565
  endloop
endfacet
facet normal 0.608761429008737 0.7933533402912228 -7.829472609772578e-32
  outer loop
    vertex 245.69996300006557 -5.856488237731664 11.000000000000565
    vertex 244.87153587531938 -5.220813747340082 19.000000000000565
    vertex 245.69996300006557 -5.856488237731664 19.000000000000565
  endloop
endfacet
facet normal -0.3826834323650859 0.9238795325112884 -2.200116901097504e-18
  outer loop
    vertex 240.87153587531938 -5.220813747340082 19.000000000000565
    vertex 241.83625969490933 -4.821212057321572 11.000000000000565
    vertex 240.87153587531938 -5.220813747340082 11.000000000000565
  endloop
endfacet
facet normal -0.3826834323650859 0.9238795325112884 -2.200116901097504e-18
  outer loop
    vertex 241.83625969490933 -4.821212057321572 11.000000000000565
    vertex 240.87153587531938 -5.220813747340082 19.000000000000565
    vertex 241.83625969490933 -4.821212057321572 19.000000000000565
  endloop
endfacet
facet normal 0.9238795325112884 0.38268343236508595 5.500292252744387e-19
  outer loop
    vertex 246.33563749045715 -6.684915362477843 11.000000000000565
    vertex 246.73523918047567 -7.649639182067747 19.000000000000565
    vertex 246.73523918047567 -7.649639182067747 11.000000000000565
  endloop
endfacet
facet normal 0.9238795325112884 0.38268343236508595 5.500292252744387e-19
  outer loop
    vertex 246.73523918047567 -7.649639182067747 19.000000000000565
    vertex 246.33563749045715 -6.684915362477843 11.000000000000565
    vertex 246.33563749045715 -6.684915362477843 19.000000000000565
  endloop
endfacet
facet normal -0.6087614290087262 -0.793353340291231 -8.749701420452116e-19
  outer loop
    vertex 240.87153587531938 -12.149016977615595 19.000000000000565
    vertex 240.04310875057317 -11.513342487224014 11.000000000000565
    vertex 240.87153587531938 -12.149016977615595 11.000000000000565
  endloop
endfacet
facet normal -0.6087614290087262 -0.793353340291231 -8.749701420452116e-19
  outer loop
    vertex 240.04310875057317 -11.513342487224014 11.000000000000565
    vertex 240.87153587531938 -12.149016977615595 19.000000000000565
    vertex 240.04310875057317 -11.513342487224014 19.000000000000565
  endloop
endfacet
facet normal 0.9238795325112884 -0.38268343236508595 -5.500292252744387e-19
  outer loop
    vertex 246.73523918047567 -9.72019154288793 11.000000000000565
    vertex 246.33563749045715 -10.684915362477835 19.000000000000565
    vertex 246.33563749045715 -10.684915362477835 11.000000000000565
  endloop
endfacet
facet normal 0.9238795325112884 -0.38268343236508595 -5.500292252744387e-19
  outer loop
    vertex 246.33563749045715 -10.684915362477835 19.000000000000565
    vertex 246.73523918047567 -9.72019154288793 11.000000000000565
    vertex 246.73523918047567 -9.72019154288793 19.000000000000565
  endloop
endfacet
facet normal 0.13052619222005074 0.9914448613738105 3.240073436516307e-31
  outer loop
    vertex 242.87153587531938 -4.684915362477846 19.000000000000565
    vertex 243.90681205572952 -4.821212057321572 11.000000000000565
    vertex 242.87153587531938 -4.684915362477846 11.000000000000565
  endloop
endfacet
facet normal 0.13052619222005074 0.9914448613738105 3.240073436516307e-31
  outer loop
    vertex 243.90681205572952 -4.821212057321572 11.000000000000565
    vertex 242.87153587531938 -4.684915362477846 19.000000000000565
    vertex 243.90681205572952 -4.821212057321572 19.000000000000565
  endloop
endfacet
facet normal -0.13052619222005074 -0.9914448613738105 2.386945915948416e-31
  outer loop
    vertex 242.87153587531938 -12.684915362477831 19.000000000000565
    vertex 241.83625969490933 -12.548618667634104 11.000000000000565
    vertex 242.87153587531938 -12.684915362477831 11.000000000000565
  endloop
endfacet
facet normal -0.13052619222005074 -0.9914448613738105 2.386945915948416e-31
  outer loop
    vertex 241.83625969490933 -12.548618667634104 11.000000000000565
    vertex 242.87153587531938 -12.684915362477831 19.000000000000565
    vertex 241.83625969490933 -12.548618667634104 19.000000000000565
  endloop
endfacet
facet normal 0.38268343236507835 -0.9238795325112916 5.500292252743026e-19
  outer loop
    vertex 244.87153587531938 -12.149016977615595 19.000000000000565
    vertex 243.90681205572946 -12.548618667634104 11.000000000000565
    vertex 244.87153587531938 -12.149016977615595 11.000000000000565
  endloop
endfacet
facet normal 0.38268343236507835 -0.9238795325112916 5.500292252743026e-19
  outer loop
    vertex 243.90681205572946 -12.548618667634104 11.000000000000565
    vertex 244.87153587531938 -12.149016977615595 19.000000000000565
    vertex 243.90681205572946 -12.548618667634104 19.000000000000565
  endloop
endfacet
facet normal -0.9914448613738105 0.13052619222005077 -3.240073436516307e-31
  outer loop
    vertex 239.00783257016312 -7.649639182067747 19.000000000000565
    vertex 238.87153587531938 -8.684915362477838 11.000000000000565
    vertex 238.87153587531938 -8.684915362477838 19.000000000000565
  endloop
endfacet
facet normal -0.9914448613738105 0.13052619222005077 -3.240073436516307e-31
  outer loop
    vertex 238.87153587531938 -8.684915362477838 11.000000000000565
    vertex 239.00783257016312 -7.649639182067747 19.000000000000565
    vertex 239.00783257016312 -7.649639182067747 11.000000000000565
  endloop
endfacet
facet normal -0.16733944092459624 -0.9858993414700324 0.0
  outer loop
    vertex 229.8715358753194 -27.43031618502771 11.000000000000568
    vertex 228.8715358753194 -27.260583400060955 10.000000000000568
    vertex 229.8715358753194 -27.43031618502771 10.000000000000568
  endloop
endfacet
facet normal -0.16733944092459624 -0.9858993414700324 0.0
  outer loop
    vertex 228.8715358753194 -27.260583400060955 10.000000000000568
    vertex 229.8715358753194 -27.43031618502771 11.000000000000568
    vertex 228.8715358753194 -27.260583400060955 22.00000000000057
  endloop
endfacet
facet normal -0.16733944092459624 -0.9858993414700324 0.0
  outer loop
    vertex 228.8715358753194 -27.260583400060955 22.00000000000057
    vertex 229.8715358753194 -27.43031618502771 11.000000000000568
    vertex 229.8715358753194 -27.43031618502771 22.00000000000057
  endloop
endfacet
facet normal -1.0 0.0 0.0
  outer loop
    vertex 228.8715358753194 9.315084637522174 22.00000000000057
    vertex 228.8715358753194 -27.260583400060955 10.000000000000568
    vertex 228.8715358753194 -27.260583400060955 22.00000000000057
  endloop
endfacet
facet normal -1.0 0.0 0.0
  outer loop
    vertex 228.8715358753194 -27.260583400060955 10.000000000000568
    vertex 228.8715358753194 9.315084637522174 22.00000000000057
    vertex 228.8715358753194 9.315084637522174 10.000000000000568
  endloop
endfacet
facet normal 0.0 1.0 0.0
  outer loop
    vertex 228.8715358753194 9.315084637522174 22.00000000000057
    vertex 229.8715358753194 9.315084637522174 10.000000000000568
    vertex 228.8715358753194 9.315084637522174 10.000000000000568
  endloop
endfacet
facet normal 0.0 1.0 0.0
  outer loop
    vertex 229.8715358753194 9.315084637522174 10.000000000000568
    vertex 228.8715358753194 9.315084637522174 22.00000000000057
    vertex 229.8715358753194 9.315084637522174 11.000000000000568
  endloop
endfacet
facet normal 0.0 1.0 0.0
  outer loop
    vertex 229.8715358753194 9.315084637522174 11.000000000000568
    vertex 228.8715358753194 9.315084637522174 22.00000000000057
    vertex 229.8715358753194 9.315084637522174 22.00000000000057
  endloop
endfacet
facet normal 2.819966482547902e-15 -1.2725916279316914e-33 1.0
  outer loop
    vertex 230.3715358753194 -27.515182577511073 11.000000000000568
    vertex 229.8715358753194 9.315084637522174 11.000000000000568
    vertex 229.8715358753194 -27.43031618502771 11.000000000000568
  endloop
endfacet
facet normal 2.819966482547902e-15 -1.2725916279316914e-33 1.0
  outer loop
    vertex 229.8715358753194 9.315084637522174 11.000000000000568
    vertex 230.3715358753194 -27.515182577511073 11.000000000000568
    vertex 230.3715358753194 9.315084637522174 11.000000000000568
  endloop
endfacet
facet normal 0.0 0.0 1.0
  outer loop
    vertex 256.8715358753194 -27.260583400060934 22.000000000000565
    vertex 255.87153587531938 9.315084637522174 22.000000000000565
    vertex 255.87153587531938 -27.430316185027685 22.000000000000565
  endloop
endfacet
facet normal 0.0 0.0 1.0
  outer loop
    vertex 255.87153587531938 9.315084637522174 22.000000000000565
    vertex 256.8715358753194 -27.260583400060934 22.000000000000565
    vertex 256.8715358753194 9.315084637522174 22.000000000000565
  endloop
endfacet
facet normal 0.0 0.0 1.0
  outer loop
    vertex 229.8715358753194 -27.43031618502771 22.00000000000057
    vertex 228.8715358753194 9.315084637522174 22.00000000000057
    vertex 228.8715358753194 -27.260583400060955 22.00000000000057
  endloop
endfacet
facet normal 0.0 0.0 1.0
  outer loop
    vertex 228.8715358753194 9.315084637522174 22.00000000000057
    vertex 229.8715358753194 -27.43031618502771 22.00000000000057
    vertex 229.8715358753194 9.315084637522174 22.00000000000057
  endloop
endfacet
facet normal -1.0 -0.0 -0.0
  outer loop
    vertex 255.87153587531938 9.315084637522174 22.000000000000565
    vertex 255.87153587531938 -27.430316185027685 11.000000000000568
    vertex 255.87153587531938 -27.430316185027685 22.000000000000565
  endloop
endfacet
facet normal -1.0 -0.0 -0.0
  outer loop
    vertex 255.87153587531938 -27.430316185027685 11.000000000000568
    vertex 255.87153587531938 9.315084637522174 22.000000000000565
    vertex 255.87153587531938 9.315084637522174 11.000000000000568
  endloop
endfacet
facet normal 1.0 0.0 0.0
  outer loop
    vertex 229.8715358753194 9.315084637522174 11.000000000000568
    vertex 229.8715358753194 -27.43031618502771 22.00000000000057
    vertex 229.8715358753194 -27.43031618502771 11.000000000000568
  endloop
endfacet
facet normal 1.0 0.0 0.0
  outer loop
    vertex 229.8715358753194 -27.43031618502771 22.00000000000057
    vertex 229.8715358753194 9.315084637522174 11.000000000000568
    vertex 229.8715358753194 9.315084637522174 22.00000000000057
  endloop
endfacet
facet normal 0.0 0.0 1.0
  outer loop
    vertex 255.87153587531938 -27.430316185027685 11.000000000000568
    vertex 255.3715358753194 9.315084637522174 11.000000000000568
    vertex 255.3715358753194 -27.515182577511073 11.000000000000568
  endloop
endfacet
facet normal 0.0 0.0 1.0
  outer loop
    vertex 255.3715358753194 9.315084637522174 11.000000000000568
    vertex 255.87153587531938 -27.430316185027685 11.000000000000568
    vertex 255.87153587531938 9.315084637522174 11.000000000000568
  endloop
endfacet
facet normal 0.16733944092461783 -0.9858993414700288 -5.3228741464470355e-30
  outer loop
    vertex 255.87153587531938 -27.430316185027685 11.000000000000568
    vertex 255.3715358753194 -27.515182577511073 10.000000000000568
    vertex 255.87153587531938 -27.430316185027685 10.000000000000568
  endloop
endfacet
facet normal 0.16733944092461783 -0.9858993414700288 -5.3228741464470355e-30
  outer loop
    vertex 255.3715358753194 -27.515182577511073 10.000000000000568
    vertex 255.87153587531938 -27.430316185027685 11.000000000000568
    vertex 255.3715358753194 -27.515182577511073 11.000000000000568
  endloop
endfacet
facet normal 0.0 1.0 0.0
  outer loop
    vertex 255.3715358753194 9.315084637522174 11.000000000000568
    vertex 255.87153587531938 9.315084637522174 10.000000000000568
    vertex 255.3715358753194 9.315084637522174 10.000000000000568
  endloop
endfacet
facet normal 0.0 1.0 0.0
  outer loop
    vertex 255.87153587531938 9.315084637522174 10.000000000000568
    vertex 255.3715358753194 9.315084637522174 11.000000000000568
    vertex 255.87153587531938 9.315084637522174 11.000000000000568
  endloop
endfacet
facet normal 0.0 0.0 -1.0
  outer loop
    vertex 229.8715358753194 9.315084637522174 10.000000000000568
    vertex 228.8715358753194 -27.260583400060955 10.000000000000568
    vertex 228.8715358753194 9.315084637522174 10.000000000000568
  endloop
endfacet
facet normal 0.0 0.0 -1.0
  outer loop
    vertex 228.8715358753194 -27.260583400060955 10.000000000000568
    vertex 229.8715358753194 9.315084637522174 10.000000000000568
    vertex 229.8715358753194 -27.43031618502771 10.000000000000568
  endloop
endfacet
facet normal 0.0 0.0 -1.0
  outer loop
    vertex 229.8715358753194 -27.43031618502771 10.000000000000568
    vertex 229.8715358753194 9.315084637522174 10.000000000000568
    vertex 230.3715358753194 9.315084637522174 10.000000000000568
  endloop
endfacet
facet normal 0.0 0.0 -1.0
  outer loop
    vertex 229.8715358753194 -27.43031618502771 10.000000000000568
    vertex 230.3715358753194 9.315084637522174 10.000000000000568
    vertex 230.3715358753194 -27.515182577511073 10.000000000000568
  endloop
endfacet
facet normal 0.0 1.0 0.0
  outer loop
    vertex 255.87153587531938 9.315084637522174 11.000000000000568
    vertex 256.8715358753194 9.315084637522174 10.000000000000568
    vertex 255.87153587531938 9.315084637522174 10.000000000000568
  endloop
endfacet
facet normal 0.0 1.0 0.0
  outer loop
    vertex 256.8715358753194 9.315084637522174 10.000000000000568
    vertex 255.87153587531938 9.315084637522174 11.000000000000568
    vertex 256.8715358753194 9.315084637522174 22.000000000000565
  endloop
endfacet
facet normal 0.0 1.0 0.0
  outer loop
    vertex 256.8715358753194 9.315084637522174 22.000000000000565
    vertex 255.87153587531938 9.315084637522174 11.000000000000568
    vertex 255.87153587531938 9.315084637522174 22.000000000000565
  endloop
endfacet
facet normal 1.0 0.0 0.0
  outer loop
    vertex 256.8715358753194 9.315084637522174 10.000000000000568
    vertex 256.8715358753194 -27.260583400060934 22.000000000000565
    vertex 256.8715358753194 -27.260583400060934 10.000000000000568
  endloop
endfacet
facet normal 1.0 0.0 0.0
  outer loop
    vertex 256.8715358753194 -27.260583400060934 22.000000000000565
    vertex 256.8715358753194 9.315084637522174 10.000000000000568
    vertex 256.8715358753194 9.315084637522174 22.000000000000565
  endloop
endfacet
facet normal 0.16733944092459627 -0.9858993414700324 3.1360318205401444e-29
  outer loop
    vertex 256.8715358753194 -27.260583400060934 22.000000000000565
    vertex 255.87153587531938 -27.430316185027685 10.000000000000568
    vertex 256.8715358753194 -27.260583400060934 10.000000000000568
  endloop
endfacet
facet normal 0.16733944092459627 -0.9858993414700324 3.1360318205401444e-29
  outer loop
    vertex 255.87153587531938 -27.430316185027685 10.000000000000568
    vertex 256.8715358753194 -27.260583400060934 22.000000000000565
    vertex 255.87153587531938 -27.430316185027685 11.000000000000568
  endloop
endfacet
facet normal 0.16733944092459627 -0.9858993414700324 3.1360318205401444e-29
  outer loop
    vertex 255.87153587531938 -27.430316185027685 11.000000000000568
    vertex 256.8715358753194 -27.260583400060934 22.000000000000565
    vertex 255.87153587531938 -27.430316185027685 22.000000000000565
  endloop
endfacet
endsolid board_enclosure
