solid cover
facet normal -0.9659258262890694 -0.25881904510251663 0.0
  outer loop
    vertex 65.77126264767831 27.418834817894567 4.5
    vertex 67.46174631665019 21.10986387592599 0.0
    vertex 67.46174631665019 21.10986387592599 4.5
  endloop
endfacet
facet normal -0.9659258262890694 -0.25881904510251663 0.0
  outer loop
    vertex 67.46174631665019 21.10986387592599 0.0
    vertex 65.77126264767831 27.418834817894567 4.5
    vertex 65.77126264767831 27.418834817894567 0.0
  endloop
endfacet
facet normal -0.9876883405951393 -0.15643446504022065 0.0
  outer loop
    vertex 67.46174631665019 21.10986387592599 4.5
    vertex 68.4835023018409 14.658750476799424 0.0
    vertex 68.4835023018409 14.658750476799424 4.5
  endloop
endfacet
facet normal -0.9876883405951393 -0.15643446504022065 0.0
  outer loop
    vertex 68.4835023018409 14.658750476799424 0.0
    vertex 67.46174631665019 21.10986387592599 4.5
    vertex 67.46174631665019 21.10986387592599 0.0
  endloop
endfacet
facet normal 0.0 0.0 -1.0
  outer loop
    vertex 13.052440602029924 71.1888625352463 0.0
    vertex 6.42533603086081 70.53617436889789 0.0
    vertex 6.42533603086081 71.53617436889785 0.0
  endloop
endfacet
facet normal 0.0 0.0 -1.0
  outer loop
    vertex 6.42533603086081 70.53617436889789 0.0
    vertex 13.052440602029924 71.1888625352463 0.0
    vertex 12.94791213876225 70.19434063987813 0.0
  endloop
endfacet
facet normal 0.0 0.0 -1.0
  outer loop
    vertex 12.94791213876225 70.19434063987813 0.0
    vertex 13.052440602029924 71.1888625352463 0.0
    vertex 19.399025537888814 69.17258465468724 0.0
  endloop
endfacet
facet normal 0.0 0.0 -1.0
  outer loop
    vertex 19.399025537888814 69.17258465468724 0.0
    vertex 13.052440602029924 71.1888625352463 0.0
    vertex 19.606937228706546 70.15073225542119 0.0
  endloop
endfacet
facet normal 0.0 0.0 -1.0
  outer loop
    vertex 19.399025537888814 69.17258465468724 0.0
    vertex 19.606937228706546 70.15073225542119 0.0
    vertex 25.707996479857396 67.48210098571538 0.0
  endloop
endfacet
facet normal 0.0 0.0 -1.0
  outer loop
    vertex 25.707996479857396 67.48210098571538 0.0
    vertex 19.606937228706546 70.15073225542119 0.0
    vertex 26.017013474232346 68.43315750201066 0.0
  endloop
endfacet
facet normal 0.0 0.0 -1.0
  outer loop
    vertex 25.707996479857396 67.48210098571538 0.0
    vertex 26.017013474232346 68.43315750201066 0.0
    vertex 31.805702558790742 65.14141092579607 0.0
  endloop
endfacet
facet normal 0.0 0.0 -1.0
  outer loop
    vertex 31.805702558790742 65.14141092579607 0.0
    vertex 26.017013474232346 68.43315750201066 0.0
    vertex 32.21243920186643 66.05495638343876 0.0
  endloop
endfacet
facet normal 0.0 0.0 -1.0
  outer loop
    vertex 31.805702558790742 65.14141092579607 0.0
    vertex 32.21243920186643 66.05495638343876 0.0
    vertex 37.62533603086075 62.176159565046824 0.0
  endloop
endfacet
facet normal 0.0 0.0 -1.0
  outer loop
    vertex 37.62533603086075 62.176159565046824 0.0
    vertex 32.21243920186643 66.05495638343876 0.0
    vertex 38.12533603086064 63.04218496883137 0.0
  endloop
endfacet
facet normal 0.0 0.0 -1.0
  outer loop
    vertex 37.62533603086075 62.176159565046824 0.0
    vertex 38.12533603086064 63.04218496883137 0.0
    vertex 43.103135773911006 58.6188348178946 0.0
  endloop
endfacet
facet normal 0.0 0.0 -1.0
  outer loop
    vertex 43.103135773911006 58.6188348178946 0.0
    vertex 38.12533603086064 63.04218496883137 0.0
    vertex 43.69092102620348 59.42785181226962 0.0
  endloop
endfacet
facet normal 0.0 0.0 -1.0
  outer loop
    vertex 43.103135773911006 58.6188348178946 0.0
    vertex 43.69092102620348 59.42785181226962 0.0
    vertex 48.17908586765338 54.50841147868734 0.0
  endloop
endfacet
facet normal 0.0 0.0 -1.0
  outer loop
    vertex 48.17908586765338 54.50841147868734 0.0
    vertex 43.69092102620348 59.42785181226962 0.0
    vertex 48.848216474012375 55.251556304164716 0.0
  endloop
endfacet
facet normal 0.0 0.0 -1.0
  outer loop
    vertex 48.17908586765338 54.50841147868734 0.0
    vertex 48.848216474012375 55.251556304164716 0.0
    vertex 52.79757314065008 49.889924205690455 0.0
  endloop
endfacet
facet normal 0.0 0.0 -1.0
  outer loop
    vertex 52.79757314065008 49.889924205690455 0.0
    vertex 48.848216474012375 55.251556304164716 0.0
    vertex 53.54071796612745 50.55905481204945 0.0
  endloop
endfacet
facet normal 0.0 0.0 -1.0
  outer loop
    vertex 52.79757314065008 49.889924205690455 0.0
    vertex 53.54071796612745 50.55905481204945 0.0
    vertex 56.90799647985734 44.813974111948156 0.0
  endloop
endfacet
facet normal 0.0 0.0 -1.0
  outer loop
    vertex 56.90799647985734 44.813974111948156 0.0
    vertex 53.54071796612745 50.55905481204945 0.0
    vertex 57.7170134742324 45.401759364240725 0.0
  endloop
endfacet
facet normal 0.0 0.0 -1.0
  outer loop
    vertex 56.90799647985734 44.813974111948156 0.0
    vertex 57.7170134742324 45.401759364240725 0.0
    vertex 60.46532122700979 39.336174368897794 0.0
  endloop
endfacet
facet normal 0.0 0.0 -1.0
  outer loop
    vertex 60.46532122700979 39.336174368897794 0.0
    vertex 57.7170134742324 45.401759364240725 0.0
    vertex 61.33134663079413 39.83617436889786 0.0
  endloop
endfacet
facet normal 0.0 0.0 -1.0
  outer loop
    vertex 60.46532122700979 39.336174368897794 0.0
    vertex 61.33134663079413 39.83617436889786 0.0
    vertex 63.430572587759 33.516540896827784 0.0
  endloop
endfacet
facet normal 0.0 0.0 -1.0
  outer loop
    vertex 63.430572587759 33.516540896827784 0.0
    vertex 61.33134663079413 39.83617436889786 0.0
    vertex 64.34411804540152 33.92327753990365 0.0
  endloop
endfacet
facet normal 0.0 0.0 -1.0
  outer loop
    vertex 63.430572587759 33.516540896827784 0.0
    vertex 64.34411804540152 33.92327753990365 0.0
    vertex 65.77126264767831 27.418834817894567 0.0
  endloop
endfacet
facet normal 0.0 0.0 -1.0
  outer loop
    vertex 65.77126264767831 27.418834817894567 0.0
    vertex 64.34411804540152 33.92327753990365 0.0
    vertex 66.72231916397342 27.72785181226952 0.0
  endloop
endfacet
facet normal 0.0 0.0 -1.0
  outer loop
    vertex 65.77126264767831 27.418834817894567 0.0
    vertex 66.72231916397342 27.72785181226952 0.0
    vertex 67.46174631665019 21.10986387592599 0.0
  endloop
endfacet
facet normal 0.0 0.0 -1.0
  outer loop
    vertex 67.46174631665019 21.10986387592599 0.0
    vertex 66.72231916397342 27.72785181226952 0.0
    vertex 68.43989391738396 21.31777556674381 0.0
  endloop
endfacet
facet normal 0.0 0.0 -1.0
  outer loop
    vertex 67.46174631665019 21.10986387592599 0.0
    vertex 68.43989391738396 21.31777556674381 0.0
    vertex 68.4835023018409 14.658750476799424 0.0
  endloop
endfacet
facet normal 0.0 0.0 -1.0
  outer loop
    vertex 68.4835023018409 14.658750476799424 0.0
    vertex 68.43989391738396 21.31777556674381 0.0
    vertex 69.47802419720924 14.763278940067098 0.0
  endloop
endfacet
facet normal 0.0 0.0 -1.0
  outer loop
    vertex 68.4835023018409 14.658750476799424 0.0
    vertex 69.47802419720924 14.763278940067098 0.0
    vertex 68.82533603086065 8.136174368897848 0.0
  endloop
endfacet
facet normal 0.0 0.0 -1.0
  outer loop
    vertex 68.82533603086065 8.136174368897848 0.0
    vertex 69.47802419720924 14.763278940067098 0.0
    vertex 69.82533603086074 8.136174368897848 0.0
  endloop
endfacet
facet normal -0.3583679495452963 -0.9335804264972033 0.0
  outer loop
    vertex 31.805702558790742 65.14141092579607 4.5
    vertex 25.707996479857396 67.48210098571538 0.0
    vertex 31.805702558790742 65.14141092579607 0.0
  endloop
endfacet
facet normal -0.3583679495452963 -0.9335804264972033 0.0
  outer loop
    vertex 25.707996479857396 67.48210098571538 0.0
    vertex 31.805702558790742 65.14141092579607 4.5
    vertex 25.707996479857396 67.48210098571538 4.5
  endloop
endfacet
facet normal -0.8386705679454123 -0.5446390350150454 0.0
  outer loop
    vertex 56.90799647985734 44.813974111948156 4.5
    vertex 60.46532122700979 39.336174368897794 0.0
    vertex 60.46532122700979 39.336174368897794 4.5
  endloop
endfacet
facet normal -0.8386705679454123 -0.5446390350150454 0.0
  outer loop
    vertex 60.46532122700979 39.336174368897794 0.0
    vertex 56.90799647985734 44.813974111948156 4.5
    vertex 56.90799647985734 44.813974111948156 0.0
  endloop
endfacet
facet normal -0.15643446504024766 -0.9876883405951352 0.0
  outer loop
    vertex 19.399025537888814 69.17258465468724 4.5
    vertex 12.94791213876225 70.19434063987813 0.0
    vertex 19.399025537888814 69.17258465468724 0.0
  endloop
endfacet
facet normal -0.15643446504024766 -0.9876883405951352 0.0
  outer loop
    vertex 12.94791213876225 70.19434063987813 0.0
    vertex 19.399025537888814 69.17258465468724 4.5
    vertex 12.94791213876225 70.19434063987813 4.5
  endloop
endfacet
facet normal -0.0 -0.0 1.0
  outer loop
    vertex 12.94791213876225 70.19434063987813 4.5
    vertex 6.42533603086081 71.53617436889785 4.5
    vertex 6.42533603086081 70.53617436889789 4.5
  endloop
endfacet
facet normal -0.0 -0.0 1.0
  outer loop
    vertex 6.42533603086081 71.53617436889785 4.5
    vertex 12.94791213876225 70.19434063987813 4.5
    vertex 13.052440602029924 71.1888625352463 4.5
  endloop
endfacet
facet normal -0.0 -0.0 1.0
  outer loop
    vertex 13.052440602029924 71.1888625352463 4.5
    vertex 12.94791213876225 70.19434063987813 4.5
    vertex 19.399025537888814 69.17258465468724 4.5
  endloop
endfacet
facet normal -0.0 -0.0 1.0
  outer loop
    vertex 13.052440602029924 71.1888625352463 4.5
    vertex 19.399025537888814 69.17258465468724 4.5
    vertex 19.606937228706546 70.15073225542119 4.5
  endloop
endfacet
facet normal -0.0 -0.0 1.0
  outer loop
    vertex 19.606937228706546 70.15073225542119 4.5
    vertex 19.399025537888814 69.17258465468724 4.5
    vertex 25.707996479857396 67.48210098571538 4.5
  endloop
endfacet
facet normal -0.0 -0.0 1.0
  outer loop
    vertex 19.606937228706546 70.15073225542119 4.5
    vertex 25.707996479857396 67.48210098571538 4.5
    vertex 26.017013474232346 68.43315750201066 4.5
  endloop
endfacet
facet normal -0.0 -0.0 1.0
  outer loop
    vertex 26.017013474232346 68.43315750201066 4.5
    vertex 25.707996479857396 67.48210098571538 4.5
    vertex 31.805702558790742 65.14141092579607 4.5
  endloop
endfacet
facet normal -0.0 -0.0 1.0
  outer loop
    vertex 26.017013474232346 68.43315750201066 4.5
    vertex 31.805702558790742 65.14141092579607 4.5
    vertex 32.21243920186643 66.05495638343876 4.5
  endloop
endfacet
facet normal -0.0 -0.0 1.0
  outer loop
    vertex 32.21243920186643 66.05495638343876 4.5
    vertex 31.805702558790742 65.14141092579607 4.5
    vertex 37.62533603086075 62.176159565046824 4.5
  endloop
endfacet
facet normal -0.0 -0.0 1.0
  outer loop
    vertex 32.21243920186643 66.05495638343876 4.5
    vertex 37.62533603086075 62.176159565046824 4.5
    vertex 38.12533603086064 63.04218496883137 4.5
  endloop
endfacet
facet normal -0.0 -0.0 1.0
  outer loop
    vertex 38.12533603086064 63.04218496883137 4.5
    vertex 37.62533603086075 62.176159565046824 4.5
    vertex 43.103135773911006 58.6188348178946 4.5
  endloop
endfacet
facet normal -0.0 -0.0 1.0
  outer loop
    vertex 38.12533603086064 63.04218496883137 4.5
    vertex 43.103135773911006 58.6188348178946 4.5
    vertex 43.69092102620348 59.42785181226962 4.5
  endloop
endfacet
facet normal -0.0 -0.0 1.0
  outer loop
    vertex 43.69092102620348 59.42785181226962 4.5
    vertex 43.103135773911006 58.6188348178946 4.5
    vertex 48.17908586765338 54.50841147868734 4.5
  endloop
endfacet
facet normal -0.0 -0.0 1.0
  outer loop
    vertex 43.69092102620348 59.42785181226962 4.5
    vertex 48.17908586765338 54.50841147868734 4.5
    vertex 48.848216474012375 55.251556304164716 4.5
  endloop
endfacet
facet normal -0.0 -0.0 1.0
  outer loop
    vertex 48.848216474012375 55.251556304164716 4.5
    vertex 48.17908586765338 54.50841147868734 4.5
    vertex 52.79757314065008 49.889924205690455 4.5
  endloop
endfacet
facet normal -0.0 -0.0 1.0
  outer loop
    vertex 48.848216474012375 55.251556304164716 4.5
    vertex 52.79757314065008 49.889924205690455 4.5
    vertex 53.54071796612745 50.55905481204945 4.5
  endloop
endfacet
facet normal -0.0 -0.0 1.0
  outer loop
    vertex 53.54071796612745 50.55905481204945 4.5
    vertex 52.79757314065008 49.889924205690455 4.5
    vertex 56.90799647985734 44.813974111948156 4.5
  endloop
endfacet
facet normal -0.0 -0.0 1.0
  outer loop
    vertex 53.54071796612745 50.55905481204945 4.5
    vertex 56.90799647985734 44.813974111948156 4.5
    vertex 57.7170134742324 45.401759364240725 4.5
  endloop
endfacet
facet normal -0.0 -0.0 1.0
  outer loop
    vertex 57.7170134742324 45.401759364240725 4.5
    vertex 56.90799647985734 44.813974111948156 4.5
    vertex 60.46532122700979 39.336174368897794 4.5
  endloop
endfacet
facet normal -0.0 -0.0 1.0
  outer loop
    vertex 57.7170134742324 45.401759364240725 4.5
    vertex 60.46532122700979 39.336174368897794 4.5
    vertex 61.33134663079413 39.83617436889786 4.5
  endloop
endfacet
facet normal -0.0 -0.0 1.0
  outer loop
    vertex 61.33134663079413 39.83617436889786 4.5
    vertex 60.46532122700979 39.336174368897794 4.5
    vertex 63.430572587759 33.516540896827784 4.5
  endloop
endfacet
facet normal -0.0 -0.0 1.0
  outer loop
    vertex 61.33134663079413 39.83617436889786 4.5
    vertex 63.430572587759 33.516540896827784 4.5
    vertex 64.34411804540152 33.92327753990365 4.5
  endloop
endfacet
facet normal -0.0 -0.0 1.0
  outer loop
    vertex 64.34411804540152 33.92327753990365 4.5
    vertex 63.430572587759 33.516540896827784 4.5
    vertex 65.77126264767831 27.418834817894567 4.5
  endloop
endfacet
facet normal -0.0 -0.0 1.0
  outer loop
    vertex 64.34411804540152 33.92327753990365 4.5
    vertex 65.77126264767831 27.418834817894567 4.5
    vertex 66.72231916397342 27.72785181226952 4.5
  endloop
endfacet
facet normal -0.0 -0.0 1.0
  outer loop
    vertex 66.72231916397342 27.72785181226952 4.5
    vertex 65.77126264767831 27.418834817894567 4.5
    vertex 67.46174631665019 21.10986387592599 4.5
  endloop
endfacet
facet normal -0.0 -0.0 1.0
  outer loop
    vertex 66.72231916397342 27.72785181226952 4.5
    vertex 67.46174631665019 21.10986387592599 4.5
    vertex 68.43989391738396 21.31777556674381 4.5
  endloop
endfacet
facet normal -0.0 -0.0 1.0
  outer loop
    vertex 68.43989391738396 21.31777556674381 4.5
    vertex 67.46174631665019 21.10986387592599 4.5
    vertex 68.4835023018409 14.658750476799424 4.5
  endloop
endfacet
facet normal -0.0 -0.0 1.0
  outer loop
    vertex 68.43989391738396 21.31777556674381 4.5
    vertex 68.4835023018409 14.658750476799424 4.5
    vertex 69.47802419720924 14.763278940067098 4.5
  endloop
endfacet
facet normal -0.0 -0.0 1.0
  outer loop
    vertex 69.47802419720924 14.763278940067098 4.5
    vertex 68.4835023018409 14.658750476799424 4.5
    vertex 68.82533603086065 8.136174368897848 4.5
  endloop
endfacet
facet normal -0.0 -0.0 1.0
  outer loop
    vertex 69.47802419720924 14.763278940067098 4.5
    vertex 68.82533603086065 8.136174368897848 4.5
    vertex 69.82533603086074 8.136174368897848 4.5
  endloop
endfacet
facet normal 0.0 -1.0 0.0
  outer loop
    vertex 69.82533603086074 8.136174368897848 0.15
    vertex 68.82533603086065 8.136174368897848 0.0
    vertex 69.82533603086074 8.136174368897848 0.0
  endloop
endfacet
facet normal 0.0 -1.0 0.0
  outer loop
    vertex 68.82533603086065 8.136174368897848 0.0
    vertex 69.82533603086074 8.136174368897848 0.15
    vertex 68.82533603086065 8.136174368897848 4.5
  endloop
endfacet
facet normal 0.0 -1.0 0.0
  outer loop
    vertex 68.82533603086065 8.136174368897848 4.5
    vertex 69.82533603086074 8.136174368897848 0.15
    vertex 69.82533603086074 8.136174368897848 4.5
  endloop
endfacet
facet normal -0.9986295347545739 -0.05233595624294566 0.0
  outer loop
    vertex 68.4835023018409 14.658750476799424 4.5
    vertex 68.82533603086065 8.136174368897848 0.0
    vertex 68.82533603086065 8.136174368897848 4.5
  endloop
endfacet
facet normal -0.9986295347545739 -0.05233595624294566 0.0
  outer loop
    vertex 68.82533603086065 8.136174368897848 0.0
    vertex 68.4835023018409 14.658750476799424 4.5
    vertex 68.4835023018409 14.658750476799424 0.0
  endloop
endfacet
facet normal 0.0 0.0 -1.0
  outer loop
    vertex 16.172615230569424 100.87534111198941 0.0
    vertex 6.42533603086081 100.38617436889795 0.0
    vertex 6.42533603086081 101.38617436889791 0.0
  endloop
endfacet
facet normal 0.0 0.0 -1.0
  outer loop
    vertex 6.42533603086081 100.38617436889795 0.0
    vertex 16.172615230569424 100.87534111198941 0.0
    vertex 16.06808676730175 99.88081921662108 0.0
  endloop
endfacet
facet normal 0.0 0.0 -1.0
  outer loop
    vertex 16.06808676730175 99.88081921662108 0.0
    vertex 16.172615230569424 100.87534111198941 0.0
    vertex 25.60518950879904 98.37029053659141 0.0
  endloop
endfacet
facet normal 0.0 0.0 -1.0
  outer loop
    vertex 25.60518950879904 98.37029053659141 0.0
    vertex 16.172615230569424 100.87534111198941 0.0
    vertex 25.81310119961677 99.34843813732518 0.0
  endloop
endfacet
facet normal 0.0 0.0 -1.0
  outer loop
    vertex 25.60518950879904 98.37029053659141 0.0
    vertex 25.81310119961677 99.34843813732518 0.0
    vertex 34.93215376194972 95.87113799712571 0.0
  endloop
endfacet
facet normal 0.0 0.0 -1.0
  outer loop
    vertex 34.93215376194972 95.87113799712571 0.0
    vertex 25.81310119961677 99.34843813732518 0.0
    vertex 35.24117075632468 96.82219451342081 0.0
  endloop
endfacet
facet normal 0.0 0.0 -1.0
  outer loop
    vertex 34.93215376194972 95.87113799712571 0.0
    vertex 35.24117075632468 96.82219451342081 0.0
    vertex 43.946791354603334 92.4107428364277 0.0
  endloop
endfacet
facet normal 0.0 0.0 -1.0
  outer loop
    vertex 43.946791354603334 92.4107428364277 0.0
    vertex 35.24117075632468 96.82219451342081 0.0
    vertex 44.3535279976792 93.3242882940704 0.0
  endloop
endfacet
facet normal 0.0 0.0 -1.0
  outer loop
    vertex 43.946791354603334 92.4107428364277 0.0
    vertex 44.3535279976792 93.3242882940704 0.0
    vertex 52.55033603086074 88.02701786801225 0.0
  endloop
endfacet
facet normal 0.0 0.0 -1.0
  outer loop
    vertex 52.55033603086074 88.02701786801225 0.0
    vertex 44.3535279976792 93.3242882940704 0.0
    vertex 53.05033603086081 88.89304327179664 0.0
  endloop
endfacet
facet normal 0.0 0.0 -1.0
  outer loop
    vertex 52.55033603086074 88.02701786801225 0.0
    vertex 53.05033603086081 88.89304327179664 0.0
    vertex 60.64852555484131 82.76799209998671 0.0
  endloop
endfacet
facet normal 0.0 0.0 -1.0
  outer loop
    vertex 60.64852555484131 82.76799209998671 0.0
    vertex 53.05033603086081 88.89304327179664 0.0
    vertex 61.23631080713378 83.57700909436174 0.0
  endloop
endfacet
facet normal 0.0 0.0 -1.0
  outer loop
    vertex 60.64852555484131 82.76799209998671 0.0
    vertex 61.23631080713378 83.57700909436174 0.0
    vertex 68.15263446746543 76.69128451918743 0.0
  endloop
endfacet
facet normal 0.0 0.0 -1.0
  outer loop
    vertex 68.15263446746543 76.69128451918743 0.0
    vertex 61.23631080713378 83.57700909436174 0.0
    vertex 68.82176507382425 77.4344293446648 0.0
  endloop
endfacet
facet normal 0.0 0.0 -1.0
  outer loop
    vertex 68.15263446746543 76.69128451918743 0.0
    vertex 68.82176507382425 77.4344293446648 0.0
    vertex 74.98044618115043 69.8634728055025 0.0
  endloop
endfacet
facet normal 0.0 0.0 -1.0
  outer loop
    vertex 74.98044618115043 69.8634728055025 0.0
    vertex 68.82176507382425 77.4344293446648 0.0
    vertex 75.7235910066277 70.53260341186132 0.0
  endloop
endfacet
facet normal 0.0 0.0 -1.0
  outer loop
    vertex 74.98044618115043 69.8634728055025 0.0
    vertex 75.7235910066277 70.53260341186132 0.0
    vertex 81.0571537619497 62.35936389287857 0.0
  endloop
endfacet
facet normal 0.0 0.0 -1.0
  outer loop
    vertex 81.0571537619497 62.35936389287857 0.0
    vertex 75.7235910066277 70.53260341186132 0.0
    vertex 81.86617075632454 62.947149145171025 0.0
  endloop
endfacet
facet normal 0.0 0.0 -1.0
  outer loop
    vertex 81.0571537619497 62.35936389287857 0.0
    vertex 81.86617075632454 62.947149145171025 0.0
    vertex 86.31617952997524 54.26117436889783 0.0
  endloop
endfacet
facet normal 0.0 0.0 -1.0
  outer loop
    vertex 86.31617952997524 54.26117436889783 0.0
    vertex 81.86617075632454 62.947149145171025 0.0
    vertex 87.18220493375964 54.76117436889789 0.0
  endloop
endfacet
facet normal 0.0 0.0 -1.0
  outer loop
    vertex 86.31617952997524 54.26117436889783 0.0
    vertex 87.18220493375964 54.76117436889789 0.0
    vertex 90.69990449839068 45.657629692640484 0.0
  endloop
endfacet
facet normal 0.0 0.0 -1.0
  outer loop
    vertex 90.69990449839068 45.657629692640484 0.0
    vertex 87.18220493375964 54.76117436889789 0.0
    vertex 91.6134499560332 46.064366335716265 0.0
  endloop
endfacet
facet normal 0.0 0.0 -1.0
  outer loop
    vertex 90.69990449839068 45.657629692640484 0.0
    vertex 91.6134499560332 46.064366335716265 0.0
    vertex 94.1602996590887 36.64299209998676 0.0
  endloop
endfacet
facet normal 0.0 0.0 -1.0
  outer loop
    vertex 94.1602996590887 36.64299209998676 0.0
    vertex 91.6134499560332 46.064366335716265 0.0
    vertex 95.1113561753838 36.95200909436171 0.0
  endloop
endfacet
facet normal 0.0 0.0 -1.0
  outer loop
    vertex 94.1602996590887 36.64299209998676 0.0
    vertex 95.1113561753838 36.95200909436171 0.0
    vertex 96.6594521985543 27.31602784683612 0.0
  endloop
endfacet
facet normal 0.0 0.0 -1.0
  outer loop
    vertex 96.6594521985543 27.31602784683612 0.0
    vertex 95.1113561753838 36.95200909436171 0.0
    vertex 97.63759979928808 27.523939537653852 0.0
  endloop
endfacet
facet normal 0.0 0.0 -1.0
  outer loop
    vertex 96.6594521985543 27.31602784683612 0.0
    vertex 97.63759979928808 27.523939537653852 0.0
    vertex 98.16998087858397 17.778925105338832 0.0
  endloop
endfacet
facet normal 0.0 0.0 -1.0
  outer loop
    vertex 98.16998087858397 17.778925105338832 0.0
    vertex 97.63759979928808 27.523939537653852 0.0
    vertex 99.16450277395222 17.88345356860651 0.0
  endloop
endfacet
facet normal 0.0 0.0 -1.0
  outer loop
    vertex 98.16998087858397 17.778925105338832 0.0
    vertex 99.16450277395222 17.88345356860651 0.0
    vertex 98.67533603086076 8.136174368897848 0.0
  endloop
endfacet
facet normal 0.0 0.0 -1.0
  outer loop
    vertex 98.67533603086076 8.136174368897848 0.0
    vertex 99.16450277395222 17.88345356860651 0.0
    vertex 99.67533603086072 8.136174368897848 0.0
  endloop
endfacet
facet normal -0.8910065241883727 -0.4539904997395373 0.0
  outer loop
    vertex 60.46532122700979 39.336174368897794 4.5
    vertex 63.430572587759 33.516540896827784 0.0
    vertex 63.430572587759 33.516540896827784 4.5
  endloop
endfacet
facet normal -0.8910065241883727 -0.4539904997395373 0.0
  outer loop
    vertex 63.430572587759 33.516540896827784 0.0
    vertex 60.46532122700979 39.336174368897794 4.5
    vertex 60.46532122700979 39.336174368897794 0.0
  endloop
endfacet
facet normal -0.6293203910498362 -0.7771459614569719 0.0
  outer loop
    vertex 48.17908586765338 54.50841147868734 4.5
    vertex 43.103135773911006 58.6188348178946 0.0
    vertex 48.17908586765338 54.50841147868734 0.0
  endloop
endfacet
facet normal -0.6293203910498362 -0.7771459614569719 0.0
  outer loop
    vertex 43.103135773911006 58.6188348178946 0.0
    vertex 48.17908586765338 54.50841147868734 4.5
    vertex 43.103135773911006 58.6188348178946 4.5
  endloop
endfacet
facet normal -0.9335804264972006 -0.35836794954530327 0.0
  outer loop
    vertex 63.430572587759 33.516540896827784 4.5
    vertex 65.77126264767831 27.418834817894567 0.0
    vertex 65.77126264767831 27.418834817894567 4.5
  endloop
endfacet
facet normal -0.9335804264972006 -0.35836794954530327 0.0
  outer loop
    vertex 65.77126264767831 27.418834817894567 0.0
    vertex 63.430572587759 33.516540896827784 4.5
    vertex 63.430572587759 33.516540896827784 0.0
  endloop
endfacet
facet normal -0.5446390350150289 -0.838670567945423 0.0
  outer loop
    vertex 43.103135773911006 58.6188348178946 4.5
    vertex 37.62533603086075 62.176159565046824 0.0
    vertex 43.103135773911006 58.6188348178946 0.0
  endloop
endfacet
facet normal -0.5446390350150289 -0.838670567945423 0.0
  outer loop
    vertex 37.62533603086075 62.176159565046824 0.0
    vertex 43.103135773911006 58.6188348178946 4.5
    vertex 37.62533603086075 62.176159565046824 4.5
  endloop
endfacet
facet normal -0.4539904997395401 -0.8910065241883712 0.0
  outer loop
    vertex 37.62533603086075 62.176159565046824 4.5
    vertex 31.805702558790742 65.14141092579607 0.0
    vertex 37.62533603086075 62.176159565046824 0.0
  endloop
endfacet
facet normal -0.4539904997395401 -0.8910065241883712 0.0
  outer loop
    vertex 31.805702558790742 65.14141092579607 0.0
    vertex 37.62533603086075 62.176159565046824 4.5
    vertex 31.805702558790742 65.14141092579607 4.5
  endloop
endfacet
facet normal -0.7071067811865613 -0.7071067811865337 0.0
  outer loop
    vertex 48.17908586765338 54.50841147868734 4.5
    vertex 52.79757314065008 49.889924205690455 0.0
    vertex 52.79757314065008 49.889924205690455 4.5
  endloop
endfacet
facet normal -0.7071067811865613 -0.7071067811865337 0.0
  outer loop
    vertex 52.79757314065008 49.889924205690455 0.0
    vertex 48.17908586765338 54.50841147868734 4.5
    vertex 48.17908586765338 54.50841147868734 0.0
  endloop
endfacet
facet normal -0.25881904510251663 -0.9659258262890694 0.0
  outer loop
    vertex 25.707996479857396 67.48210098571538 4.5
    vertex 19.399025537888814 69.17258465468724 0.0
    vertex 25.707996479857396 67.48210098571538 0.0
  endloop
endfacet
facet normal -0.25881904510251663 -0.9659258262890694 0.0
  outer loop
    vertex 19.399025537888814 69.17258465468724 0.0
    vertex 25.707996479857396 67.48210098571538 4.5
    vertex 19.399025537888814 69.17258465468724 4.5
  endloop
endfacet
facet normal 0.4539904997395385 0.8910065241883723 -0.0
  outer loop
    vertex 32.21243920186643 66.05495638343876 4.5
    vertex 38.12533603086064 63.04218496883137 0.15
    vertex 32.21243920186643 66.05495638343876 0.15
  endloop
endfacet
facet normal 0.4539904997395385 0.8910065241883723 -0.0
  outer loop
    vertex 38.12533603086064 63.04218496883137 0.15
    vertex 32.21243920186643 66.05495638343876 4.5
    vertex 38.12533603086064 63.04218496883137 4.5
  endloop
endfacet
facet normal -0.7771459614569678 -0.6293203910498412 0.0
  outer loop
    vertex 52.79757314065008 49.889924205690455 4.5
    vertex 56.90799647985734 44.813974111948156 0.0
    vertex 56.90799647985734 44.813974111948156 4.5
  endloop
endfacet
facet normal -0.7771459614569678 -0.6293203910498412 0.0
  outer loop
    vertex 56.90799647985734 44.813974111948156 0.0
    vertex 52.79757314065008 49.889924205690455 4.5
    vertex 52.79757314065008 49.889924205690455 0.0
  endloop
endfacet
facet normal -0.9986295347545739 -0.05233595624294549 0.0
  outer loop
    vertex 98.16998087858397 17.778925105338832 10.15
    vertex 98.67533603086076 8.136174368897848 0.15
    vertex 98.67533603086076 8.136174368897848 10.15
  endloop
endfacet
facet normal -0.9986295347545739 -0.05233595624294549 0.0
  outer loop
    vertex 98.67533603086076 8.136174368897848 0.15
    vertex 98.16998087858397 17.778925105338832 10.15
    vertex 98.16998087858397 17.778925105338832 0.15
  endloop
endfacet
facet normal -1.0 0.0 0.0
  outer loop
    vertex 6.42533603086081 101.38617436889791 10.15
    vertex 6.42533603086081 100.38617436889795 0.15
    vertex 6.42533603086081 100.38617436889795 10.15
  endloop
endfacet
facet normal -1.0 0.0 0.0
  outer loop
    vertex 6.42533603086081 100.38617436889795 0.15
    vertex 6.42533603086081 101.38617436889791 10.15
    vertex 6.42533603086081 100.38617436889795 0.0
  endloop
endfacet
facet normal -1.0 0.0 0.0
  outer loop
    vertex 6.42533603086081 100.38617436889795 0.0
    vertex 6.42533603086081 101.38617436889791 10.15
    vertex 6.42533603086081 101.38617436889791 0.0
  endloop
endfacet
facet normal 0.0 -1.0 0.0
  outer loop
    vertex 99.67533603086072 8.136174368897848 10.15
    vertex 98.67533603086076 8.136174368897848 0.0
    vertex 99.67533603086072 8.136174368897848 0.0
  endloop
endfacet
facet normal 0.0 -1.0 0.0
  outer loop
    vertex 98.67533603086076 8.136174368897848 0.0
    vertex 99.67533603086072 8.136174368897848 10.15
    vertex 98.67533603086076 8.136174368897848 0.15
  endloop
endfacet
facet normal 0.0 -1.0 0.0
  outer loop
    vertex 98.67533603086076 8.136174368897848 0.15
    vertex 99.67533603086072 8.136174368897848 10.15
    vertex 98.67533603086076 8.136174368897848 10.15
  endloop
endfacet
facet normal 0.6293203910498398 0.7771459614569691 -0.0
  outer loop
    vertex 61.23631080713378 83.57700909436174 10.15
    vertex 68.82176507382425 77.4344293446648 0.0
    vertex 61.23631080713378 83.57700909436174 0.0
  endloop
endfacet
facet normal 0.6293203910498398 0.7771459614569691 -0.0
  outer loop
    vertex 68.82176507382425 77.4344293446648 0.0
    vertex 61.23631080713378 83.57700909436174 10.15
    vertex 68.82176507382425 77.4344293446648 10.15
  endloop
endfacet
facet normal -0.052335956242955076 -0.9986295347545735 0.0
  outer loop
    vertex 16.06808676730175 99.88081921662108 10.15
    vertex 6.42533603086081 100.38617436889795 0.15
    vertex 16.06808676730175 99.88081921662108 0.15
  endloop
endfacet
facet normal -0.052335956242955076 -0.9986295347545735 0.0
  outer loop
    vertex 6.42533603086081 100.38617436889795 0.15
    vertex 16.06808676730175 99.88081921662108 10.15
    vertex 6.42533603086081 100.38617436889795 10.15
  endloop
endfacet
facet normal -0.3583679495453046 -0.9335804264972001 0.0
  outer loop
    vertex 43.946791354603334 92.4107428364277 10.15
    vertex 34.93215376194972 95.87113799712571 0.15
    vertex 43.946791354603334 92.4107428364277 0.15
  endloop
endfacet
facet normal -0.3583679495453046 -0.9335804264972001 0.0
  outer loop
    vertex 34.93215376194972 95.87113799712571 0.15
    vertex 43.946791354603334 92.4107428364277 10.15
    vertex 34.93215376194972 95.87113799712571 10.15
  endloop
endfacet
facet normal -0.45399049973954575 -0.8910065241883685 0.0
  outer loop
    vertex 52.55033603086074 88.02701786801225 10.15
    vertex 43.946791354603334 92.4107428364277 0.15
    vertex 52.55033603086074 88.02701786801225 0.15
  endloop
endfacet
facet normal -0.45399049973954575 -0.8910065241883685 0.0
  outer loop
    vertex 43.946791354603334 92.4107428364277 0.15
    vertex 52.55033603086074 88.02701786801225 10.15
    vertex 43.946791354603334 92.4107428364277 10.15
  endloop
endfacet
facet normal 0.9659258262890696 0.258819045102516 -0.0
  outer loop
    vertex 95.1113561753838 36.95200909436171 0.0
    vertex 97.63759979928808 27.523939537653852 10.15
    vertex 97.63759979928808 27.523939537653852 0.0
  endloop
endfacet
facet normal 0.9659258262890696 0.258819045102516 -0.0
  outer loop
    vertex 97.63759979928808 27.523939537653852 10.15
    vertex 95.1113561753838 36.95200909436171 0.0
    vertex 95.1113561753838 36.95200909436171 10.15
  endloop
endfacet
facet normal 0.5446390350150236 0.8386705679454265 -0.0
  outer loop
    vertex 53.05033603086081 88.89304327179664 10.15
    vertex 61.23631080713378 83.57700909436174 0.0
    vertex 53.05033603086081 88.89304327179664 0.0
  endloop
endfacet
facet normal 0.5446390350150236 0.8386705679454265 -0.0
  outer loop
    vertex 61.23631080713378 83.57700909436174 0.0
    vertex 53.05033603086081 88.89304327179664 10.15
    vertex 61.23631080713378 83.57700909436174 10.15
  endloop
endfacet
facet normal 0.8386705679454227 0.5446390350150292 -0.0
  outer loop
    vertex 81.86617075632454 62.947149145171025 0.0
    vertex 87.18220493375964 54.76117436889789 10.15
    vertex 87.18220493375964 54.76117436889789 0.0
  endloop
endfacet
facet normal 0.8386705679454227 0.5446390350150292 -0.0
  outer loop
    vertex 87.18220493375964 54.76117436889789 10.15
    vertex 81.86617075632454 62.947149145171025 0.0
    vertex 81.86617075632454 62.947149145171025 10.15
  endloop
endfacet
facet normal -0.15643446504023212 -0.9876883405951375 0.0
  outer loop
    vertex 25.60518950879904 98.37029053659141 10.15
    vertex 16.06808676730175 99.88081921662108 0.15
    vertex 25.60518950879904 98.37029053659141 0.15
  endloop
endfacet
facet normal -0.15643446504023212 -0.9876883405951375 0.0
  outer loop
    vertex 16.06808676730175 99.88081921662108 0.15
    vertex 25.60518950879904 98.37029053659141 10.15
    vertex 16.06808676730175 99.88081921662108 10.15
  endloop
endfacet
facet normal -0.9659258262890699 -0.25881904510251547 0.0
  outer loop
    vertex 94.1602996590887 36.64299209998676 10.15
    vertex 96.6594521985543 27.31602784683612 0.15
    vertex 96.6594521985543 27.31602784683612 10.15
  endloop
endfacet
facet normal -0.9659258262890699 -0.25881904510251547 0.0
  outer loop
    vertex 96.6594521985543 27.31602784683612 0.15
    vertex 94.1602996590887 36.64299209998676 10.15
    vertex 94.1602996590887 36.64299209998676 0.15
  endloop
endfacet
facet normal 0.2588190451025175 0.9659258262890692 -0.0
  outer loop
    vertex 19.606937228706546 70.15073225542119 4.5
    vertex 26.017013474232346 68.43315750201066 0.15
    vertex 19.606937228706546 70.15073225542119 0.15
  endloop
endfacet
facet normal 0.2588190451025175 0.9659258262890692 -0.0
  outer loop
    vertex 26.017013474232346 68.43315750201066 0.15
    vertex 19.606937228706546 70.15073225542119 4.5
    vertex 26.017013474232346 68.43315750201066 4.5
  endloop
endfacet
facet normal -0.0 -0.0 1.0
  outer loop
    vertex 13.052440602029924 71.1888625352463 0.15
    vertex 6.42533603086081 100.38617436889795 0.15
    vertex 6.42533603086081 71.53617436889785 0.15
  endloop
endfacet
facet normal -0.0 -0.0 1.0
  outer loop
    vertex 6.42533603086081 100.38617436889795 0.15
    vertex 13.052440602029924 71.1888625352463 0.15
    vertex 16.06808676730175 99.88081921662108 0.15
  endloop
endfacet
facet normal -0.0 -0.0 1.0
  outer loop
    vertex 16.06808676730175 99.88081921662108 0.15
    vertex 13.052440602029924 71.1888625352463 0.15
    vertex 19.606937228706546 70.15073225542119 0.15
  endloop
endfacet
facet normal -0.0 -0.0 1.0
  outer loop
    vertex 16.06808676730175 99.88081921662108 0.15
    vertex 19.606937228706546 70.15073225542119 0.15
    vertex 25.60518950879904 98.37029053659141 0.15
  endloop
endfacet
facet normal -0.0 -0.0 1.0
  outer loop
    vertex 25.60518950879904 98.37029053659141 0.15
    vertex 19.606937228706546 70.15073225542119 0.15
    vertex 26.017013474232346 68.43315750201066 0.15
  endloop
endfacet
facet normal -0.0 -0.0 1.0
  outer loop
    vertex 25.60518950879904 98.37029053659141 0.15
    vertex 26.017013474232346 68.43315750201066 0.15
    vertex 34.93215376194972 95.87113799712571 0.15
  endloop
endfacet
facet normal -0.0 -0.0 1.0
  outer loop
    vertex 34.93215376194972 95.87113799712571 0.15
    vertex 26.017013474232346 68.43315750201066 0.15
    vertex 32.21243920186643 66.05495638343876 0.15
  endloop
endfacet
facet normal -0.0 -0.0 1.0
  outer loop
    vertex 34.93215376194972 95.87113799712571 0.15
    vertex 32.21243920186643 66.05495638343876 0.15
    vertex 38.12533603086064 63.04218496883137 0.15
  endloop
endfacet
facet normal -0.0 -0.0 1.0
  outer loop
    vertex 34.93215376194972 95.87113799712571 0.15
    vertex 38.12533603086064 63.04218496883137 0.15
    vertex 43.946791354603334 92.4107428364277 0.15
  endloop
endfacet
facet normal -0.0 -0.0 1.0
  outer loop
    vertex 43.946791354603334 92.4107428364277 0.15
    vertex 38.12533603086064 63.04218496883137 0.15
    vertex 43.69092102620348 59.42785181226962 0.15
  endloop
endfacet
facet normal -0.0 -0.0 1.0
  outer loop
    vertex 43.946791354603334 92.4107428364277 0.15
    vertex 43.69092102620348 59.42785181226962 0.15
    vertex 48.848216474012375 55.251556304164716 0.15
  endloop
endfacet
facet normal -0.0 -0.0 1.0
  outer loop
    vertex 43.946791354603334 92.4107428364277 0.15
    vertex 48.848216474012375 55.251556304164716 0.15
    vertex 52.55033603086074 88.02701786801225 0.15
  endloop
endfacet
facet normal -0.0 -0.0 1.0
  outer loop
    vertex 52.55033603086074 88.02701786801225 0.15
    vertex 48.848216474012375 55.251556304164716 0.15
    vertex 53.54071796612745 50.55905481204945 0.15
  endloop
endfacet
facet normal -0.0 -0.0 1.0
  outer loop
    vertex 52.55033603086074 88.02701786801225 0.15
    vertex 53.54071796612745 50.55905481204945 0.15
    vertex 60.64852555484131 82.76799209998671 0.15
  endloop
endfacet
facet normal -0.0 -0.0 1.0
  outer loop
    vertex 60.64852555484131 82.76799209998671 0.15
    vertex 53.54071796612745 50.55905481204945 0.15
    vertex 57.7170134742324 45.401759364240725 0.15
  endloop
endfacet
facet normal -0.0 -0.0 1.0
  outer loop
    vertex 60.64852555484131 82.76799209998671 0.15
    vertex 57.7170134742324 45.401759364240725 0.15
    vertex 61.33134663079413 39.83617436889786 0.15
  endloop
endfacet
facet normal -0.0 -0.0 1.0
  outer loop
    vertex 60.64852555484131 82.76799209998671 0.15
    vertex 61.33134663079413 39.83617436889786 0.15
    vertex 68.15263446746543 76.69128451918743 0.15
  endloop
endfacet
facet normal -0.0 -0.0 1.0
  outer loop
    vertex 68.15263446746543 76.69128451918743 0.15
    vertex 61.33134663079413 39.83617436889786 0.15
    vertex 64.34411804540152 33.92327753990365 0.15
  endloop
endfacet
facet normal -0.0 -0.0 1.0
  outer loop
    vertex 68.15263446746543 76.69128451918743 0.15
    vertex 64.34411804540152 33.92327753990365 0.15
    vertex 66.72231916397342 27.72785181226952 0.15
  endloop
endfacet
facet normal -0.0 -0.0 1.0
  outer loop
    vertex 68.15263446746543 76.69128451918743 0.15
    vertex 66.72231916397342 27.72785181226952 0.15
    vertex 68.43989391738396 21.31777556674381 0.15
  endloop
endfacet
facet normal -0.0 -0.0 1.0
  outer loop
    vertex 68.15263446746543 76.69128451918743 0.15
    vertex 68.43989391738396 21.31777556674381 0.15
    vertex 74.98044618115043 69.8634728055025 0.15
  endloop
endfacet
facet normal -0.0 -0.0 1.0
  outer loop
    vertex 74.98044618115043 69.8634728055025 0.15
    vertex 68.43989391738396 21.31777556674381 0.15
    vertex 69.47802419720924 14.763278940067098 0.15
  endloop
endfacet
facet normal -0.0 -0.0 1.0
  outer loop
    vertex 74.98044618115043 69.8634728055025 0.15
    vertex 69.47802419720924 14.763278940067098 0.15
    vertex 69.82533603086074 8.136174368897848 0.15
  endloop
endfacet
facet normal -0.0 -0.0 1.0
  outer loop
    vertex 74.98044618115043 69.8634728055025 0.15
    vertex 69.82533603086074 8.136174368897848 0.15
    vertex 98.67533603086076 8.136174368897848 0.15
  endloop
endfacet
facet normal -0.0 -0.0 1.0
  outer loop
    vertex 74.98044618115043 69.8634728055025 0.15
    vertex 98.67533603086076 8.136174368897848 0.15
    vertex 81.0571537619497 62.35936389287857 0.15
  endloop
endfacet
facet normal -0.0 -0.0 1.0
  outer loop
    vertex 81.0571537619497 62.35936389287857 0.15
    vertex 98.67533603086076 8.136174368897848 0.15
    vertex 86.31617952997524 54.26117436889783 0.15
  endloop
endfacet
facet normal -0.0 -0.0 1.0
  outer loop
    vertex 86.31617952997524 54.26117436889783 0.15
    vertex 98.67533603086076 8.136174368897848 0.15
    vertex 90.69990449839068 45.657629692640484 0.15
  endloop
endfacet
facet normal -0.0 -0.0 1.0
  outer loop
    vertex 90.69990449839068 45.657629692640484 0.15
    vertex 98.67533603086076 8.136174368897848 0.15
    vertex 94.1602996590887 36.64299209998676 0.15
  endloop
endfacet
facet normal -0.0 -0.0 1.0
  outer loop
    vertex 94.1602996590887 36.64299209998676 0.15
    vertex 98.67533603086076 8.136174368897848 0.15
    vertex 96.6594521985543 27.31602784683612 0.15
  endloop
endfacet
facet normal -0.0 -0.0 1.0
  outer loop
    vertex 96.6594521985543 27.31602784683612 0.15
    vertex 98.67533603086076 8.136174368897848 0.15
    vertex 98.16998087858397 17.778925105338832 0.15
  endloop
endfacet
facet normal -0.5446390350150294 -0.8386705679454226 0.0
  outer loop
    vertex 60.64852555484131 82.76799209998671 10.15
    vertex 52.55033603086074 88.02701786801225 0.15
    vertex 60.64852555484131 82.76799209998671 0.15
  endloop
endfacet
facet normal -0.5446390350150294 -0.8386705679454226 0.0
  outer loop
    vertex 52.55033603086074 88.02701786801225 0.15
    vertex 60.64852555484131 82.76799209998671 10.15
    vertex 52.55033603086074 88.02701786801225 10.15
  endloop
endfacet
facet normal 0.8910065241883706 0.4539904997395419 -0.0
  outer loop
    vertex 87.18220493375964 54.76117436889789 0.0
    vertex 91.6134499560332 46.064366335716265 10.15
    vertex 91.6134499560332 46.064366335716265 0.0
  endloop
endfacet
facet normal 0.8910065241883706 0.4539904997395419 -0.0
  outer loop
    vertex 91.6134499560332 46.064366335716265 10.15
    vertex 87.18220493375964 54.76117436889789 0.0
    vertex 87.18220493375964 54.76117436889789 10.15
  endloop
endfacet
facet normal 0.45399049973955735 0.8910065241883625 -0.0
  outer loop
    vertex 44.3535279976792 93.3242882940704 10.15
    vertex 53.05033603086081 88.89304327179664 0.0
    vertex 44.3535279976792 93.3242882940704 0.0
  endloop
endfacet
facet normal 0.45399049973955735 0.8910065241883625 -0.0
  outer loop
    vertex 53.05033603086081 88.89304327179664 0.0
    vertex 44.3535279976792 93.3242882940704 10.15
    vertex 53.05033603086081 88.89304327179664 10.15
  endloop
endfacet
facet normal 0.7071067811865498 0.7071067811865452 -0.0
  outer loop
    vertex 68.82176507382425 77.4344293446648 0.0
    vertex 75.7235910066277 70.53260341186132 10.15
    vertex 75.7235910066277 70.53260341186132 0.0
  endloop
endfacet
facet normal 0.7071067811865498 0.7071067811865452 -0.0
  outer loop
    vertex 75.7235910066277 70.53260341186132 10.15
    vertex 68.82176507382425 77.4344293446648 0.0
    vertex 68.82176507382425 77.4344293446648 10.15
  endloop
endfacet
facet normal -0.891006524188367 -0.45399049973954864 0.0
  outer loop
    vertex 86.31617952997524 54.26117436889783 10.15
    vertex 90.69990449839068 45.657629692640484 0.15
    vertex 90.69990449839068 45.657629692640484 10.15
  endloop
endfacet
facet normal -0.891006524188367 -0.45399049973954864 0.0
  outer loop
    vertex 90.69990449839068 45.657629692640484 0.15
    vertex 86.31617952997524 54.26117436889783 10.15
    vertex 86.31617952997524 54.26117436889783 0.15
  endloop
endfacet
facet normal 0.8386705679454284 0.5446390350150206 -0.0
  outer loop
    vertex 57.7170134742324 45.401759364240725 0.15
    vertex 61.33134663079413 39.83617436889786 4.5
    vertex 61.33134663079413 39.83617436889786 0.15
  endloop
endfacet
facet normal 0.8386705679454284 0.5446390350150206 -0.0
  outer loop
    vertex 61.33134663079413 39.83617436889786 4.5
    vertex 57.7170134742324 45.401759364240725 0.15
    vertex 57.7170134742324 45.401759364240725 4.5
  endloop
endfacet
facet normal 0.7071067811865611 0.707106781186534 -0.0
  outer loop
    vertex 48.848216474012375 55.251556304164716 0.15
    vertex 53.54071796612745 50.55905481204945 4.5
    vertex 53.54071796612745 50.55905481204945 0.15
  endloop
endfacet
facet normal 0.7071067811865611 0.707106781186534 -0.0
  outer loop
    vertex 53.54071796612745 50.55905481204945 4.5
    vertex 48.848216474012375 55.251556304164716 0.15
    vertex 48.848216474012375 55.251556304164716 4.5
  endloop
endfacet
facet normal 0.9659258262890682 0.2588190451025209 -0.0
  outer loop
    vertex 66.72231916397342 27.72785181226952 0.15
    vertex 68.43989391738396 21.31777556674381 4.5
    vertex 68.43989391738396 21.31777556674381 0.15
  endloop
endfacet
facet normal 0.9659258262890682 0.2588190451025209 -0.0
  outer loop
    vertex 68.43989391738396 21.31777556674381 4.5
    vertex 66.72231916397342 27.72785181226952 0.15
    vertex 66.72231916397342 27.72785181226952 4.5
  endloop
endfacet
facet normal 0.987688340595137 0.15643446504023542 -0.0
  outer loop
    vertex 68.43989391738396 21.31777556674381 0.15
    vertex 69.47802419720924 14.763278940067098 4.5
    vertex 69.47802419720924 14.763278940067098 0.15
  endloop
endfacet
facet normal 0.987688340595137 0.15643446504023542 -0.0
  outer loop
    vertex 69.47802419720924 14.763278940067098 4.5
    vertex 68.43989391738396 21.31777556674381 0.15
    vertex 68.43989391738396 21.31777556674381 4.5
  endloop
endfacet
facet normal -0.05233595624294673 -0.9986295347545737 0.0
  outer loop
    vertex 12.94791213876225 70.19434063987813 4.5
    vertex 6.42533603086081 70.53617436889789 0.0
    vertex 12.94791213876225 70.19434063987813 0.0
  endloop
endfacet
facet normal -0.05233595624294673 -0.9986295347545737 0.0
  outer loop
    vertex 6.42533603086081 70.53617436889789 0.0
    vertex 12.94791213876225 70.19434063987813 4.5
    vertex 6.42533603086081 70.53617436889789 4.5
  endloop
endfacet
facet normal 0.0 -1.0 0.0
  outer loop
    vertex 98.67533603086076 8.136174368897848 0.15
    vertex 69.82533603086074 8.136174368897848 0.0
    vertex 98.67533603086076 8.136174368897848 0.0
  endloop
endfacet
facet normal 0.0 -1.0 0.0
  outer loop
    vertex 69.82533603086074 8.136174368897848 0.0
    vertex 98.67533603086076 8.136174368897848 0.15
    vertex 69.82533603086074 8.136174368897848 0.15
  endloop
endfacet
facet normal 0.2588190451025235 0.9659258262890675 -0.0
  outer loop
    vertex 25.81310119961677 99.34843813732518 10.15
    vertex 35.24117075632468 96.82219451342081 0.0
    vertex 25.81310119961677 99.34843813732518 0.0
  endloop
endfacet
facet normal 0.2588190451025235 0.9659258262890675 -0.0
  outer loop
    vertex 35.24117075632468 96.82219451342081 0.0
    vertex 25.81310119961677 99.34843813732518 10.15
    vertex 35.24117075632468 96.82219451342081 10.15
  endloop
endfacet
facet normal 0.9335804264972001 0.3583679495453051 -0.0
  outer loop
    vertex 91.6134499560332 46.064366335716265 0.0
    vertex 95.1113561753838 36.95200909436171 10.15
    vertex 95.1113561753838 36.95200909436171 0.0
  endloop
endfacet
facet normal 0.9335804264972001 0.3583679495453051 -0.0
  outer loop
    vertex 95.1113561753838 36.95200909436171 10.15
    vertex 91.6134499560332 46.064366335716265 0.0
    vertex 91.6134499560332 46.064366335716265 10.15
  endloop
endfacet
facet normal 0.15643446504024347 0.9876883405951359 -0.0
  outer loop
    vertex 16.172615230569424 100.87534111198941 10.15
    vertex 25.81310119961677 99.34843813732518 0.0
    vertex 16.172615230569424 100.87534111198941 0.0
  endloop
endfacet
facet normal 0.15643446504024347 0.9876883405951359 -0.0
  outer loop
    vertex 25.81310119961677 99.34843813732518 0.0
    vertex 16.172615230569424 100.87534111198941 10.15
    vertex 25.81310119961677 99.34843813732518 10.15
  endloop
endfacet
facet normal 0.3583679495452898 0.9335804264972059 -0.0
  outer loop
    vertex 35.24117075632468 96.82219451342081 10.15
    vertex 44.3535279976792 93.3242882940704 0.0
    vertex 35.24117075632468 96.82219451342081 0.0
  endloop
endfacet
facet normal 0.3583679495452898 0.9335804264972059 -0.0
  outer loop
    vertex 44.3535279976792 93.3242882940704 0.0
    vertex 35.24117075632468 96.82219451342081 10.15
    vertex 44.3535279976792 93.3242882940704 10.15
  endloop
endfacet
facet normal 0.9876883405951373 0.15643446504023445 -0.0
  outer loop
    vertex 97.63759979928808 27.523939537653852 0.0
    vertex 99.16450277395222 17.88345356860651 10.15
    vertex 99.16450277395222 17.88345356860651 0.0
  endloop
endfacet
facet normal 0.9876883405951373 0.15643446504023445 -0.0
  outer loop
    vertex 99.16450277395222 17.88345356860651 10.15
    vertex 97.63759979928808 27.523939537653852 0.0
    vertex 97.63759979928808 27.523939537653852 10.15
  endloop
endfacet
facet normal -0.6293203910498317 -0.7771459614569758 0.0
  outer loop
    vertex 68.15263446746543 76.69128451918743 10.15
    vertex 60.64852555484131 82.76799209998671 0.15
    vertex 68.15263446746543 76.69128451918743 0.15
  endloop
endfacet
facet normal -0.6293203910498317 -0.7771459614569758 0.0
  outer loop
    vertex 60.64852555484131 82.76799209998671 0.15
    vertex 68.15263446746543 76.69128451918743 10.15
    vertex 60.64852555484131 82.76799209998671 10.15
  endloop
endfacet
facet normal -1.0 0.0 0.0
  outer loop
    vertex 6.42533603086081 71.53617436889785 4.5
    vertex 6.42533603086081 70.53617436889789 0.0
    vertex 6.42533603086081 70.53617436889789 4.5
  endloop
endfacet
facet normal -1.0 0.0 0.0
  outer loop
    vertex 6.42533603086081 70.53617436889789 0.0
    vertex 6.42533603086081 71.53617436889785 4.5
    vertex 6.42533603086081 71.53617436889785 0.0
  endloop
endfacet
facet normal -1.0 0.0 0.0
  outer loop
    vertex 6.42533603086081 71.53617436889785 0.0
    vertex 6.42533603086081 71.53617436889785 4.5
    vertex 6.42533603086081 71.53617436889785 0.15
  endloop
endfacet
facet normal 0.0 0.0 -1.0
  outer loop
    vertex 16.06808676730175 99.88081921662108 0.0
    vertex 6.42533603086081 71.53617436889785 0.0
    vertex 6.42533603086081 100.38617436889795 0.0
  endloop
endfacet
facet normal 0.0 0.0 -1.0
  outer loop
    vertex 6.42533603086081 71.53617436889785 0.0
    vertex 16.06808676730175 99.88081921662108 0.0
    vertex 13.052440602029924 71.1888625352463 0.0
  endloop
endfacet
facet normal 0.0 0.0 -1.0
  outer loop
    vertex 13.052440602029924 71.1888625352463 0.0
    vertex 16.06808676730175 99.88081921662108 0.0
    vertex 19.606937228706546 70.15073225542119 0.0
  endloop
endfacet
facet normal 0.0 0.0 -1.0
  outer loop
    vertex 19.606937228706546 70.15073225542119 0.0
    vertex 16.06808676730175 99.88081921662108 0.0
    vertex 25.60518950879904 98.37029053659141 0.0
  endloop
endfacet
facet normal 0.0 0.0 -1.0
  outer loop
    vertex 19.606937228706546 70.15073225542119 0.0
    vertex 25.60518950879904 98.37029053659141 0.0
    vertex 26.017013474232346 68.43315750201066 0.0
  endloop
endfacet
facet normal 0.0 0.0 -1.0
  outer loop
    vertex 26.017013474232346 68.43315750201066 0.0
    vertex 25.60518950879904 98.37029053659141 0.0
    vertex 34.93215376194972 95.87113799712571 0.0
  endloop
endfacet
facet normal 0.0 0.0 -1.0
  outer loop
    vertex 26.017013474232346 68.43315750201066 0.0
    vertex 34.93215376194972 95.87113799712571 0.0
    vertex 32.21243920186643 66.05495638343876 0.0
  endloop
endfacet
facet normal 0.0 0.0 -1.0
  outer loop
    vertex 32.21243920186643 66.05495638343876 0.0
    vertex 34.93215376194972 95.87113799712571 0.0
    vertex 38.12533603086064 63.04218496883137 0.0
  endloop
endfacet
facet normal 0.0 0.0 -1.0
  outer loop
    vertex 38.12533603086064 63.04218496883137 0.0
    vertex 34.93215376194972 95.87113799712571 0.0
    vertex 43.946791354603334 92.4107428364277 0.0
  endloop
endfacet
facet normal 0.0 0.0 -1.0
  outer loop
    vertex 38.12533603086064 63.04218496883137 0.0
    vertex 43.946791354603334 92.4107428364277 0.0
    vertex 43.69092102620348 59.42785181226962 0.0
  endloop
endfacet
facet normal 0.0 0.0 -1.0
  outer loop
    vertex 43.69092102620348 59.42785181226962 0.0
    vertex 43.946791354603334 92.4107428364277 0.0
    vertex 48.848216474012375 55.251556304164716 0.0
  endloop
endfacet
facet normal 0.0 0.0 -1.0
  outer loop
    vertex 48.848216474012375 55.251556304164716 0.0
    vertex 43.946791354603334 92.4107428364277 0.0
    vertex 52.55033603086074 88.02701786801225 0.0
  endloop
endfacet
facet normal 0.0 0.0 -1.0
  outer loop
    vertex 48.848216474012375 55.251556304164716 0.0
    vertex 52.55033603086074 88.02701786801225 0.0
    vertex 53.54071796612745 50.55905481204945 0.0
  endloop
endfacet
facet normal 0.0 0.0 -1.0
  outer loop
    vertex 53.54071796612745 50.55905481204945 0.0
    vertex 52.55033603086074 88.02701786801225 0.0
    vertex 60.64852555484131 82.76799209998671 0.0
  endloop
endfacet
facet normal 0.0 0.0 -1.0
  outer loop
    vertex 53.54071796612745 50.55905481204945 0.0
    vertex 60.64852555484131 82.76799209998671 0.0
    vertex 57.7170134742324 45.401759364240725 0.0
  endloop
endfacet
facet normal 0.0 0.0 -1.0
  outer loop
    vertex 57.7170134742324 45.401759364240725 0.0
    vertex 60.64852555484131 82.76799209998671 0.0
    vertex 61.33134663079413 39.83617436889786 0.0
  endloop
endfacet
facet normal 0.0 0.0 -1.0
  outer loop
    vertex 61.33134663079413 39.83617436889786 0.0
    vertex 60.64852555484131 82.76799209998671 0.0
    vertex 68.15263446746543 76.69128451918743 0.0
  endloop
endfacet
facet normal 0.0 0.0 -1.0
  outer loop
    vertex 61.33134663079413 39.83617436889786 0.0
    vertex 68.15263446746543 76.69128451918743 0.0
    vertex 64.34411804540152 33.92327753990365 0.0
  endloop
endfacet
facet normal 0.0 0.0 -1.0
  outer loop
    vertex 64.34411804540152 33.92327753990365 0.0
    vertex 68.15263446746543 76.69128451918743 0.0
    vertex 66.72231916397342 27.72785181226952 0.0
  endloop
endfacet
facet normal 0.0 0.0 -1.0
  outer loop
    vertex 66.72231916397342 27.72785181226952 0.0
    vertex 68.15263446746543 76.69128451918743 0.0
    vertex 68.43989391738396 21.31777556674381 0.0
  endloop
endfacet
facet normal 0.0 0.0 -1.0
  outer loop
    vertex 68.43989391738396 21.31777556674381 0.0
    vertex 68.15263446746543 76.69128451918743 0.0
    vertex 74.98044618115043 69.8634728055025 0.0
  endloop
endfacet
facet normal 0.0 0.0 -1.0
  outer loop
    vertex 68.43989391738396 21.31777556674381 0.0
    vertex 74.98044618115043 69.8634728055025 0.0
    vertex 69.47802419720924 14.763278940067098 0.0
  endloop
endfacet
facet normal 0.0 0.0 -1.0
  outer loop
    vertex 69.47802419720924 14.763278940067098 0.0
    vertex 74.98044618115043 69.8634728055025 0.0
    vertex 69.82533603086074 8.136174368897848 0.0
  endloop
endfacet
facet normal 0.0 0.0 -1.0
  outer loop
    vertex 69.82533603086074 8.136174368897848 0.0
    vertex 74.98044618115043 69.8634728055025 0.0
    vertex 98.67533603086076 8.136174368897848 0.0
  endloop
endfacet
facet normal 0.0 0.0 -1.0
  outer loop
    vertex 98.67533603086076 8.136174368897848 0.0
    vertex 74.98044618115043 69.8634728055025 0.0
    vertex 81.0571537619497 62.35936389287857 0.0
  endloop
endfacet
facet normal 0.0 0.0 -1.0
  outer loop
    vertex 98.67533603086076 8.136174368897848 0.0
    vertex 81.0571537619497 62.35936389287857 0.0
    vertex 86.31617952997524 54.26117436889783 0.0
  endloop
endfacet
facet normal 0.0 0.0 -1.0
  outer loop
    vertex 98.67533603086076 8.136174368897848 0.0
    vertex 86.31617952997524 54.26117436889783 0.0
    vertex 90.69990449839068 45.657629692640484 0.0
  endloop
endfacet
facet normal 0.0 0.0 -1.0
  outer loop
    vertex 98.67533603086076 8.136174368897848 0.0
    vertex 90.69990449839068 45.657629692640484 0.0
    vertex 94.1602996590887 36.64299209998676 0.0
  endloop
endfacet
facet normal 0.0 0.0 -1.0
  outer loop
    vertex 98.67533603086076 8.136174368897848 0.0
    vertex 94.1602996590887 36.64299209998676 0.0
    vertex 96.6594521985543 27.31602784683612 0.0
  endloop
endfacet
facet normal 0.0 0.0 -1.0
  outer loop
    vertex 98.67533603086076 8.136174368897848 0.0
    vertex 96.6594521985543 27.31602784683612 0.0
    vertex 98.16998087858397 17.778925105338832 0.0
  endloop
endfacet
facet normal 0.9986295347545739 0.052335956242942606 -0.0
  outer loop
    vertex 99.16450277395222 17.88345356860651 0.0
    vertex 99.67533603086072 8.136174368897848 10.15
    vertex 99.67533603086072 8.136174368897848 0.0
  endloop
endfacet
facet normal 0.9986295347545739 0.052335956242942606 -0.0
  outer loop
    vertex 99.67533603086072 8.136174368897848 10.15
    vertex 99.16450277395222 17.88345356860651 0.0
    vertex 99.16450277395222 17.88345356860651 10.15
  endloop
endfacet
facet normal 0.6293203910498347 0.7771459614569731 -0.0
  outer loop
    vertex 43.69092102620348 59.42785181226962 4.5
    vertex 48.848216474012375 55.251556304164716 0.15
    vertex 43.69092102620348 59.42785181226962 0.15
  endloop
endfacet
facet normal 0.6293203910498347 0.7771459614569731 -0.0
  outer loop
    vertex 48.848216474012375 55.251556304164716 0.15
    vertex 43.69092102620348 59.42785181226962 4.5
    vertex 48.848216474012375 55.251556304164716 4.5
  endloop
endfacet
facet normal -0.258819045102523 -0.9659258262890678 0.0
  outer loop
    vertex 34.93215376194972 95.87113799712571 10.15
    vertex 25.60518950879904 98.37029053659141 0.15
    vertex 34.93215376194972 95.87113799712571 0.15
  endloop
endfacet
facet normal -0.258819045102523 -0.9659258262890678 0.0
  outer loop
    vertex 25.60518950879904 98.37029053659141 0.15
    vertex 34.93215376194972 95.87113799712571 10.15
    vertex 25.60518950879904 98.37029053659141 10.15
  endloop
endfacet
facet normal -1.0 0.0 0.0
  outer loop
    vertex 6.42533603086081 100.38617436889795 0.15
    vertex 6.42533603086081 71.53617436889785 0.0
    vertex 6.42533603086081 71.53617436889785 0.15
  endloop
endfacet
facet normal -1.0 0.0 0.0
  outer loop
    vertex 6.42533603086081 71.53617436889785 0.0
    vertex 6.42533603086081 100.38617436889795 0.15
    vertex 6.42533603086081 100.38617436889795 0.0
  endloop
endfacet
facet normal -0.7071067811865452 -0.7071067811865499 0.0
  outer loop
    vertex 74.98044618115043 69.8634728055025 10.15
    vertex 68.15263446746543 76.69128451918743 0.15
    vertex 74.98044618115043 69.8634728055025 0.15
  endloop
endfacet
facet normal -0.7071067811865452 -0.7071067811865499 0.0
  outer loop
    vertex 68.15263446746543 76.69128451918743 0.15
    vertex 74.98044618115043 69.8634728055025 10.15
    vertex 68.15263446746543 76.69128451918743 10.15
  endloop
endfacet
facet normal -0.7771459614569673 -0.6293203910498419 0.0
  outer loop
    vertex 74.98044618115043 69.8634728055025 10.15
    vertex 81.0571537619497 62.35936389287857 0.15
    vertex 81.0571537619497 62.35936389287857 10.15
  endloop
endfacet
facet normal -0.7771459614569673 -0.6293203910498419 0.0
  outer loop
    vertex 81.0571537619497 62.35936389287857 0.15
    vertex 74.98044618115043 69.8634728055025 10.15
    vertex 74.98044618115043 69.8634728055025 0.15
  endloop
endfacet
facet normal 0.35836794954530743 0.9335804264971991 -0.0
  outer loop
    vertex 26.017013474232346 68.43315750201066 4.5
    vertex 32.21243920186643 66.05495638343876 0.15
    vertex 26.017013474232346 68.43315750201066 0.15
  endloop
endfacet
facet normal 0.35836794954530743 0.9335804264971991 -0.0
  outer loop
    vertex 32.21243920186643 66.05495638343876 0.15
    vertex 26.017013474232346 68.43315750201066 4.5
    vertex 32.21243920186643 66.05495638343876 4.5
  endloop
endfacet
facet normal -0.9335804264972016 -0.35836794954530077 0.0
  outer loop
    vertex 90.69990449839068 45.657629692640484 10.15
    vertex 94.1602996590887 36.64299209998676 0.15
    vertex 94.1602996590887 36.64299209998676 10.15
  endloop
endfacet
facet normal -0.9335804264972016 -0.35836794954530077 0.0
  outer loop
    vertex 94.1602996590887 36.64299209998676 0.15
    vertex 90.69990449839068 45.657629692640484 10.15
    vertex 90.69990449839068 45.657629692640484 0.15
  endloop
endfacet
facet normal 1.8101762009348336e-31 1.6876036156203965e-31 1.0
  outer loop
    vertex 16.06808676730175 99.88081921662108 10.15
    vertex 6.42533603086081 101.38617436889791 10.15
    vertex 6.42533603086081 100.38617436889795 10.15
  endloop
endfacet
facet normal 1.8101762009348336e-31 1.6876036156203965e-31 1.0
  outer loop
    vertex 6.42533603086081 101.38617436889791 10.15
    vertex 16.06808676730175 99.88081921662108 10.15
    vertex 16.172615230569424 100.87534111198941 10.15
  endloop
endfacet
facet normal 1.8101762009348336e-31 1.6876036156203965e-31 1.0
  outer loop
    vertex 16.172615230569424 100.87534111198941 10.15
    vertex 16.06808676730175 99.88081921662108 10.15
    vertex 25.60518950879904 98.37029053659141 10.15
  endloop
endfacet
facet normal 1.8101762009348336e-31 1.6876036156203965e-31 1.0
  outer loop
    vertex 16.172615230569424 100.87534111198941 10.15
    vertex 25.60518950879904 98.37029053659141 10.15
    vertex 25.81310119961677 99.34843813732518 10.15
  endloop
endfacet
facet normal 1.8101762009348336e-31 1.6876036156203965e-31 1.0
  outer loop
    vertex 25.81310119961677 99.34843813732518 10.15
    vertex 25.60518950879904 98.37029053659141 10.15
    vertex 34.93215376194972 95.87113799712571 10.15
  endloop
endfacet
facet normal 1.8101762009348336e-31 1.6876036156203965e-31 1.0
  outer loop
    vertex 25.81310119961677 99.34843813732518 10.15
    vertex 34.93215376194972 95.87113799712571 10.15
    vertex 35.24117075632468 96.82219451342081 10.15
  endloop
endfacet
facet normal 1.8101762009348336e-31 1.6876036156203965e-31 1.0
  outer loop
    vertex 35.24117075632468 96.82219451342081 10.15
    vertex 34.93215376194972 95.87113799712571 10.15
    vertex 43.946791354603334 92.4107428364277 10.15
  endloop
endfacet
facet normal 1.8101762009348336e-31 1.6876036156203965e-31 1.0
  outer loop
    vertex 35.24117075632468 96.82219451342081 10.15
    vertex 43.946791354603334 92.4107428364277 10.15
    vertex 44.3535279976792 93.3242882940704 10.15
  endloop
endfacet
facet normal 1.8101762009348336e-31 1.6876036156203965e-31 1.0
  outer loop
    vertex 44.3535279976792 93.3242882940704 10.15
    vertex 43.946791354603334 92.4107428364277 10.15
    vertex 52.55033603086074 88.02701786801225 10.15
  endloop
endfacet
facet normal 1.8101762009348336e-31 1.6876036156203965e-31 1.0
  outer loop
    vertex 44.3535279976792 93.3242882940704 10.15
    vertex 52.55033603086074 88.02701786801225 10.15
    vertex 53.05033603086081 88.89304327179664 10.15
  endloop
endfacet
facet normal 1.8101762009348336e-31 1.6876036156203965e-31 1.0
  outer loop
    vertex 53.05033603086081 88.89304327179664 10.15
    vertex 52.55033603086074 88.02701786801225 10.15
    vertex 60.64852555484131 82.76799209998671 10.15
  endloop
endfacet
facet normal 1.8101762009348336e-31 1.6876036156203965e-31 1.0
  outer loop
    vertex 53.05033603086081 88.89304327179664 10.15
    vertex 60.64852555484131 82.76799209998671 10.15
    vertex 61.23631080713378 83.57700909436174 10.15
  endloop
endfacet
facet normal 1.8101762009348336e-31 1.6876036156203965e-31 1.0
  outer loop
    vertex 61.23631080713378 83.57700909436174 10.15
    vertex 60.64852555484131 82.76799209998671 10.15
    vertex 68.15263446746543 76.69128451918743 10.15
  endloop
endfacet
facet normal 1.8101762009348336e-31 1.6876036156203965e-31 1.0
  outer loop
    vertex 61.23631080713378 83.57700909436174 10.15
    vertex 68.15263446746543 76.69128451918743 10.15
    vertex 68.82176507382425 77.4344293446648 10.15
  endloop
endfacet
facet normal 1.8101762009348336e-31 1.6876036156203965e-31 1.0
  outer loop
    vertex 68.82176507382425 77.4344293446648 10.15
    vertex 68.15263446746543 76.69128451918743 10.15
    vertex 74.98044618115043 69.8634728055025 10.15
  endloop
endfacet
facet normal 1.8101762009348336e-31 1.6876036156203965e-31 1.0
  outer loop
    vertex 68.82176507382425 77.4344293446648 10.15
    vertex 74.98044618115043 69.8634728055025 10.15
    vertex 75.7235910066277 70.53260341186132 10.15
  endloop
endfacet
facet normal 1.8101762009348336e-31 1.6876036156203965e-31 1.0
  outer loop
    vertex 75.7235910066277 70.53260341186132 10.15
    vertex 74.98044618115043 69.8634728055025 10.15
    vertex 81.0571537619497 62.35936389287857 10.15
  endloop
endfacet
facet normal 1.8101762009348336e-31 1.6876036156203965e-31 1.0
  outer loop
    vertex 75.7235910066277 70.53260341186132 10.15
    vertex 81.0571537619497 62.35936389287857 10.15
    vertex 81.86617075632454 62.947149145171025 10.15
  endloop
endfacet
facet normal 1.8101762009348336e-31 1.6876036156203965e-31 1.0
  outer loop
    vertex 81.86617075632454 62.947149145171025 10.15
    vertex 81.0571537619497 62.35936389287857 10.15
    vertex 86.31617952997524 54.26117436889783 10.15
  endloop
endfacet
facet normal 1.8101762009348336e-31 1.6876036156203965e-31 1.0
  outer loop
    vertex 81.86617075632454 62.947149145171025 10.15
    vertex 86.31617952997524 54.26117436889783 10.15
    vertex 87.18220493375964 54.76117436889789 10.15
  endloop
endfacet
facet normal 1.8101762009348336e-31 1.6876036156203965e-31 1.0
  outer loop
    vertex 87.18220493375964 54.76117436889789 10.15
    vertex 86.31617952997524 54.26117436889783 10.15
    vertex 90.69990449839068 45.657629692640484 10.15
  endloop
endfacet
facet normal 1.8101762009348336e-31 1.6876036156203965e-31 1.0
  outer loop
    vertex 87.18220493375964 54.76117436889789 10.15
    vertex 90.69990449839068 45.657629692640484 10.15
    vertex 91.6134499560332 46.064366335716265 10.15
  endloop
endfacet
facet normal 1.8101762009348336e-31 1.6876036156203965e-31 1.0
  outer loop
    vertex 91.6134499560332 46.064366335716265 10.15
    vertex 90.69990449839068 45.657629692640484 10.15
    vertex 94.1602996590887 36.64299209998676 10.15
  endloop
endfacet
facet normal 1.8101762009348336e-31 1.6876036156203965e-31 1.0
  outer loop
    vertex 91.6134499560332 46.064366335716265 10.15
    vertex 94.1602996590887 36.64299209998676 10.15
    vertex 95.1113561753838 36.95200909436171 10.15
  endloop
endfacet
facet normal 1.8101762009348336e-31 1.6876036156203965e-31 1.0
  outer loop
    vertex 95.1113561753838 36.95200909436171 10.15
    vertex 94.1602996590887 36.64299209998676 10.15
    vertex 96.6594521985543 27.31602784683612 10.15
  endloop
endfacet
facet normal 1.8101762009348336e-31 1.6876036156203965e-31 1.0
  outer loop
    vertex 95.1113561753838 36.95200909436171 10.15
    vertex 96.6594521985543 27.31602784683612 10.15
    vertex 97.63759979928808 27.523939537653852 10.15
  endloop
endfacet
facet normal 1.8101762009348336e-31 1.6876036156203965e-31 1.0
  outer loop
    vertex 97.63759979928808 27.523939537653852 10.15
    vertex 96.6594521985543 27.31602784683612 10.15
    vertex 98.16998087858397 17.778925105338832 10.15
  endloop
endfacet
facet normal 1.8101762009348336e-31 1.6876036156203965e-31 1.0
  outer loop
    vertex 97.63759979928808 27.523939537653852 10.15
    vertex 98.16998087858397 17.778925105338832 10.15
    vertex 99.16450277395222 17.88345356860651 10.15
  endloop
endfacet
facet normal 1.8101762009348336e-31 1.6876036156203965e-31 1.0
  outer loop
    vertex 99.16450277395222 17.88345356860651 10.15
    vertex 98.16998087858397 17.778925105338832 10.15
    vertex 98.67533603086076 8.136174368897848 10.15
  endloop
endfacet
facet normal 1.8101762009348336e-31 1.6876036156203965e-31 1.0
  outer loop
    vertex 99.16450277395222 17.88345356860651 10.15
    vertex 98.67533603086076 8.136174368897848 10.15
    vertex 99.67533603086072 8.136174368897848 10.15
  endloop
endfacet
facet normal 0.7771459614569662 0.6293203910498432 -0.0
  outer loop
    vertex 75.7235910066277 70.53260341186132 0.0
    vertex 81.86617075632454 62.947149145171025 10.15
    vertex 81.86617075632454 62.947149145171025 0.0
  endloop
endfacet
facet normal 0.7771459614569662 0.6293203910498432 -0.0
  outer loop
    vertex 81.86617075632454 62.947149145171025 10.15
    vertex 75.7235910066277 70.53260341186132 0.0
    vertex 75.7235910066277 70.53260341186132 10.15
  endloop
endfacet
facet normal 0.052335956242942835 0.9986295347545739 -0.0
  outer loop
    vertex 6.42533603086081 101.38617436889791 10.15
    vertex 16.172615230569424 100.87534111198941 0.0
    vertex 6.42533603086081 101.38617436889791 0.0
  endloop
endfacet
facet normal 0.052335956242942835 0.9986295347545739 -0.0
  outer loop
    vertex 16.172615230569424 100.87534111198941 0.0
    vertex 6.42533603086081 101.38617436889791 10.15
    vertex 16.172615230569424 100.87534111198941 10.15
  endloop
endfacet
facet normal -0.8386705679454283 -0.5446390350150209 0.0
  outer loop
    vertex 81.0571537619497 62.35936389287857 10.15
    vertex 86.31617952997524 54.26117436889783 0.15
    vertex 86.31617952997524 54.26117436889783 10.15
  endloop
endfacet
facet normal -0.8386705679454283 -0.5446390350150209 0.0
  outer loop
    vertex 86.31617952997524 54.26117436889783 0.15
    vertex 81.0571537619497 62.35936389287857 10.15
    vertex 81.0571537619497 62.35936389287857 0.15
  endloop
endfacet
facet normal -0.9876883405951375 -0.15643446504023212 0.0
  outer loop
    vertex 96.6594521985543 27.31602784683612 10.15
    vertex 98.16998087858397 17.778925105338832 0.15
    vertex 98.16998087858397 17.778925105338832 10.15
  endloop
endfacet
facet normal -0.9876883405951375 -0.15643446504023212 0.0
  outer loop
    vertex 98.16998087858397 17.778925105338832 0.15
    vertex 96.6594521985543 27.31602784683612 10.15
    vertex 96.6594521985543 27.31602784683612 0.15
  endloop
endfacet
facet normal 0.15643446504021097 0.9876883405951409 -0.0
  outer loop
    vertex 13.052440602029924 71.1888625352463 4.5
    vertex 19.606937228706546 70.15073225542119 0.15
    vertex 13.052440602029924 71.1888625352463 0.15
  endloop
endfacet
facet normal 0.15643446504021097 0.9876883405951409 -0.0
  outer loop
    vertex 19.606937228706546 70.15073225542119 0.15
    vertex 13.052440602029924 71.1888625352463 4.5
    vertex 19.606937228706546 70.15073225542119 4.5
  endloop
endfacet
facet normal 0.7771459614569604 0.6293203910498505 -0.0
  outer loop
    vertex 53.54071796612745 50.55905481204945 0.15
    vertex 57.7170134742324 45.401759364240725 4.5
    vertex 57.7170134742324 45.401759364240725 0.15
  endloop
endfacet
facet normal 0.7771459614569604 0.6293203910498505 -0.0
  outer loop
    vertex 57.7170134742324 45.401759364240725 4.5
    vertex 53.54071796612745 50.55905481204945 0.15
    vertex 53.54071796612745 50.55905481204945 4.5
  endloop
endfacet
facet normal 0.8910065241883723 0.4539904997395385 -0.0
  outer loop
    vertex 61.33134663079413 39.83617436889786 0.15
    vertex 64.34411804540152 33.92327753990365 4.5
    vertex 64.34411804540152 33.92327753990365 0.15
  endloop
endfacet
facet normal 0.8910065241883723 0.4539904997395385 -0.0
  outer loop
    vertex 64.34411804540152 33.92327753990365 4.5
    vertex 61.33134663079413 39.83617436889786 0.15
    vertex 61.33134663079413 39.83617436889786 4.5
  endloop
endfacet
facet normal 0.05233595624295602 0.9986295347545733 -0.0
  outer loop
    vertex 6.42533603086081 71.53617436889785 4.5
    vertex 13.052440602029924 71.1888625352463 0.15
    vertex 6.42533603086081 71.53617436889785 0.15
  endloop
endfacet
facet normal 0.05233595624295602 0.9986295347545733 -0.0
  outer loop
    vertex 13.052440602029924 71.1888625352463 0.15
    vertex 6.42533603086081 71.53617436889785 4.5
    vertex 13.052440602029924 71.1888625352463 4.5
  endloop
endfacet
facet normal 0.5446390350150244 0.8386705679454257 -0.0
  outer loop
    vertex 38.12533603086064 63.04218496883137 4.5
    vertex 43.69092102620348 59.42785181226962 0.15
    vertex 38.12533603086064 63.04218496883137 0.15
  endloop
endfacet
facet normal 0.5446390350150244 0.8386705679454257 -0.0
  outer loop
    vertex 43.69092102620348 59.42785181226962 0.15
    vertex 38.12533603086064 63.04218496883137 4.5
    vertex 43.69092102620348 59.42785181226962 4.5
  endloop
endfacet
facet normal 0.9986295347545737 0.05233595624294818 -0.0
  outer loop
    vertex 69.47802419720924 14.763278940067098 0.15
    vertex 69.82533603086074 8.136174368897848 4.5
    vertex 69.82533603086074 8.136174368897848 0.15
  endloop
endfacet
facet normal 0.9986295347545737 0.05233595624294818 -0.0
  outer loop
    vertex 69.82533603086074 8.136174368897848 4.5
    vertex 69.47802419720924 14.763278940067098 0.15
    vertex 69.47802419720924 14.763278940067098 4.5
  endloop
endfacet
facet normal 0.9335804264972001 0.35836794954530515 -0.0
  outer loop
    vertex 64.34411804540152 33.92327753990365 0.15
    vertex 66.72231916397342 27.72785181226952 4.5
    vertex 66.72231916397342 27.72785181226952 0.15
  endloop
endfacet
facet normal 0.9335804264972001 0.35836794954530515 -0.0
  outer loop
    vertex 66.72231916397342 27.72785181226952 4.5
    vertex 64.34411804540152 33.92327753990365 0.15
    vertex 64.34411804540152 33.92327753990365 4.5
  endloop
endfacet
endsolid cover
